<svg width="396" height="352" viewBox="0 0 396 352" fill="none" xmlns="http://www.w3.org/2000/svg">
<rect width="396" height="352" fill="#2A3647"/>
<path d="M32.8626 169H25.1183L36.9183 134.818H46.2315L58.0149 169H50.2706L41.7085 142.629H41.4414L32.8626 169ZM32.3786 155.564H50.6712V161.206H32.3786V155.564ZM70.2489 169.417C68.3017 169.417 66.5381 168.917 64.9581 167.915C63.3892 166.903 62.143 165.417 61.2195 163.459C60.3071 161.489 59.8509 159.075 59.8509 156.215C59.8509 153.278 60.3237 150.835 61.2695 148.888C62.2153 146.93 63.4727 145.467 65.0415 144.499C66.6216 143.519 68.3518 143.03 70.2322 143.03C71.6676 143.03 72.8638 143.275 73.8207 143.764C74.7887 144.243 75.5676 144.844 76.1573 145.567C76.7582 146.279 77.2144 146.98 77.5259 147.67H77.7429V134.818H84.8363V169H77.8264V164.894H77.5259C77.1921 165.606 76.7192 166.313 76.1072 167.014C75.5064 167.704 74.7219 168.277 73.7539 168.733C72.797 169.189 71.6287 169.417 70.2489 169.417ZM72.5021 163.759C73.6482 163.759 74.6162 163.448 75.4062 162.825C76.2074 162.19 76.8194 161.306 77.2422 160.171C77.6761 159.036 77.8931 157.706 77.8931 156.182C77.8931 154.657 77.6817 153.333 77.2589 152.21C76.8361 151.086 76.2241 150.218 75.4229 149.606C74.6218 148.994 73.6482 148.688 72.5021 148.688C71.3338 148.688 70.3491 149.005 69.5479 149.639C68.7468 150.273 68.1404 151.152 67.7287 152.276C67.317 153.4 67.1112 154.702 67.1112 156.182C67.1112 157.673 67.317 158.991 67.7287 160.137C68.1515 161.272 68.7579 162.163 69.5479 162.808C70.3491 163.442 71.3338 163.759 72.5021 163.759ZM100.129 169.417C98.1816 169.417 96.418 168.917 94.838 167.915C93.2691 166.903 92.0229 165.417 91.0993 163.459C90.1869 161.489 89.7307 159.075 89.7307 156.215C89.7307 153.278 90.2036 150.835 91.1494 148.888C92.0952 146.93 93.3525 145.467 94.9214 144.499C96.5015 143.519 98.2317 143.03 100.112 143.03C101.547 143.03 102.744 143.275 103.701 143.764C104.669 144.243 105.447 144.844 106.037 145.567C106.638 146.279 107.094 146.98 107.406 147.67H107.623V134.818H114.716V169H107.706V164.894H107.406C107.072 165.606 106.599 166.313 105.987 167.014C105.386 167.704 104.602 168.277 103.634 168.733C102.677 169.189 101.509 169.417 100.129 169.417ZM102.382 163.759C103.528 163.759 104.496 163.448 105.286 162.825C106.087 162.19 106.699 161.306 107.122 160.171C107.556 159.036 107.773 157.706 107.773 156.182C107.773 154.657 107.562 153.333 107.139 152.21C106.716 151.086 106.104 150.218 105.303 149.606C104.502 148.994 103.528 148.688 102.382 148.688C101.214 148.688 100.229 149.005 99.4278 149.639C98.6267 150.273 98.0203 151.152 97.6086 152.276C97.1969 153.4 96.991 154.702 96.991 156.182C96.991 157.673 97.1969 158.991 97.6086 160.137C98.0314 161.272 98.6378 162.163 99.4278 162.808C100.229 163.442 101.214 163.759 102.382 163.759ZM143.023 169.501C140.397 169.501 138.138 168.944 136.247 167.832C134.366 166.708 132.92 165.15 131.907 163.158C130.906 161.167 130.405 158.875 130.405 156.282C130.405 153.656 130.911 151.353 131.924 149.372C132.948 147.38 134.4 145.828 136.28 144.716C138.161 143.592 140.397 143.03 142.99 143.03C145.226 143.03 147.184 143.436 148.865 144.248C150.545 145.06 151.874 146.201 152.854 147.67C153.833 149.138 154.372 150.863 154.473 152.844H147.763C147.574 151.564 147.073 150.535 146.261 149.756C145.46 148.966 144.408 148.571 143.106 148.571C142.005 148.571 141.042 148.871 140.219 149.472C139.407 150.062 138.773 150.924 138.316 152.059C137.86 153.194 137.632 154.568 137.632 156.182C137.632 157.817 137.855 159.208 138.3 160.354C138.756 161.5 139.396 162.374 140.219 162.975C141.042 163.576 142.005 163.876 143.106 163.876C143.919 163.876 144.648 163.709 145.293 163.375C145.949 163.042 146.489 162.558 146.912 161.923C147.346 161.278 147.63 160.505 147.763 159.603H154.473C154.361 161.562 153.827 163.286 152.87 164.777C151.925 166.257 150.617 167.414 148.948 168.249C147.279 169.083 145.304 169.501 143.023 169.501ZM170.608 169.501C168.015 169.501 165.773 168.95 163.882 167.848C162.001 166.736 160.549 165.189 159.526 163.208C158.502 161.217 157.99 158.908 157.99 156.282C157.99 153.634 158.502 151.319 159.526 149.339C160.549 147.347 162.001 145.8 163.882 144.699C165.773 143.586 168.015 143.03 170.608 143.03C173.201 143.03 175.437 143.586 177.317 144.699C179.209 145.8 180.667 147.347 181.69 149.339C182.714 151.319 183.226 153.634 183.226 156.282C183.226 158.908 182.714 161.217 181.69 163.208C180.667 165.189 179.209 166.736 177.317 167.848C175.437 168.95 173.201 169.501 170.608 169.501ZM170.641 163.993C171.821 163.993 172.806 163.659 173.596 162.991C174.386 162.313 174.981 161.389 175.381 160.221C175.793 159.053 175.999 157.723 175.999 156.232C175.999 154.741 175.793 153.411 175.381 152.243C174.981 151.075 174.386 150.151 173.596 149.472C172.806 148.794 171.821 148.454 170.641 148.454C169.451 148.454 168.449 148.794 167.637 149.472C166.836 150.151 166.23 151.075 165.818 152.243C165.417 153.411 165.217 154.741 165.217 156.232C165.217 157.723 165.417 159.053 165.818 160.221C166.23 161.389 166.836 162.313 167.637 162.991C168.449 163.659 169.451 163.993 170.641 163.993ZM194.959 154.179V169H187.849V143.364H194.625V147.887H194.926C195.493 146.396 196.445 145.216 197.78 144.348C199.115 143.469 200.734 143.03 202.637 143.03C204.417 143.03 205.969 143.419 207.293 144.198C208.617 144.977 209.647 146.09 210.381 147.536C211.115 148.972 211.483 150.685 211.483 152.677V169H204.373V153.945C204.384 152.376 203.983 151.152 203.171 150.273C202.359 149.383 201.24 148.938 199.816 148.938C198.859 148.938 198.013 149.144 197.279 149.556C196.556 149.967 195.988 150.568 195.577 151.358C195.176 152.137 194.97 153.077 194.959 154.179ZM230.722 143.364V148.705H215.284V143.364H230.722ZM218.789 137.222H225.899V161.122C225.899 161.779 225.999 162.29 226.199 162.658C226.4 163.014 226.678 163.264 227.034 163.409C227.401 163.553 227.824 163.626 228.302 163.626C228.636 163.626 228.97 163.598 229.304 163.542C229.638 163.475 229.893 163.425 230.071 163.392L231.19 168.683C230.834 168.794 230.333 168.922 229.688 169.067C229.042 169.223 228.258 169.317 227.334 169.35C225.621 169.417 224.119 169.189 222.828 168.666C221.548 168.143 220.552 167.331 219.84 166.229C219.128 165.128 218.778 163.737 218.789 162.057V137.222ZM242.664 169.484C241.029 169.484 239.571 169.2 238.291 168.633C237.012 168.054 235.999 167.203 235.254 166.079C234.519 164.944 234.152 163.531 234.152 161.84C234.152 160.416 234.414 159.219 234.937 158.251C235.46 157.283 236.172 156.504 237.073 155.915C237.974 155.325 238.998 154.88 240.144 154.58C241.301 154.279 242.514 154.068 243.783 153.945C245.274 153.79 246.475 153.645 247.388 153.511C248.3 153.367 248.962 153.155 249.374 152.877C249.786 152.599 249.991 152.187 249.991 151.642V151.542C249.991 150.485 249.658 149.667 248.99 149.088C248.333 148.51 247.399 148.221 246.186 148.221C244.906 148.221 243.888 148.504 243.132 149.072C242.375 149.628 241.874 150.329 241.63 151.175L235.054 150.641C235.387 149.083 236.044 147.737 237.023 146.602C238.002 145.455 239.265 144.576 240.812 143.964C242.369 143.341 244.172 143.03 246.219 143.03C247.644 143.03 249.007 143.197 250.309 143.531C251.621 143.864 252.784 144.382 253.797 145.083C254.82 145.784 255.627 146.685 256.217 147.787C256.807 148.877 257.101 150.184 257.101 151.709V169H250.359V165.445H250.158C249.747 166.246 249.196 166.953 248.506 167.565C247.816 168.165 246.987 168.638 246.019 168.983C245.051 169.317 243.933 169.484 242.664 169.484ZM244.701 164.577C245.746 164.577 246.67 164.371 247.471 163.96C248.272 163.537 248.901 162.969 249.357 162.257C249.813 161.545 250.041 160.738 250.041 159.837V157.116C249.819 157.261 249.513 157.395 249.123 157.517C248.745 157.628 248.317 157.734 247.838 157.834C247.36 157.923 246.881 158.007 246.403 158.085C245.925 158.151 245.491 158.212 245.101 158.268C244.267 158.391 243.538 158.585 242.915 158.852C242.292 159.119 241.808 159.481 241.463 159.937C241.118 160.382 240.945 160.939 240.945 161.606C240.945 162.574 241.296 163.314 241.997 163.826C242.709 164.327 243.61 164.577 244.701 164.577ZM274.201 169.501C271.575 169.501 269.316 168.944 267.424 167.832C265.544 166.708 264.098 165.15 263.085 163.158C262.084 161.167 261.583 158.875 261.583 156.282C261.583 153.656 262.089 151.353 263.102 149.372C264.125 147.38 265.577 145.828 267.458 144.716C269.338 143.592 271.575 143.03 274.167 143.03C276.404 143.03 278.362 143.436 280.042 144.248C281.723 145.06 283.052 146.201 284.031 147.67C285.011 149.138 285.55 150.863 285.65 152.844H278.941C278.752 151.564 278.251 150.535 277.439 149.756C276.638 148.966 275.586 148.571 274.284 148.571C273.183 148.571 272.22 148.871 271.397 149.472C270.584 150.062 269.95 150.924 269.494 152.059C269.038 153.194 268.81 154.568 268.81 156.182C268.81 157.817 269.032 159.208 269.477 160.354C269.934 161.5 270.573 162.374 271.397 162.975C272.22 163.576 273.183 163.876 274.284 163.876C275.096 163.876 275.825 163.709 276.471 163.375C277.127 163.042 277.667 162.558 278.09 161.923C278.524 161.278 278.807 160.505 278.941 159.603H285.65C285.539 161.562 285.005 163.286 284.048 164.777C283.102 166.257 281.795 167.414 280.126 168.249C278.457 169.083 276.482 169.501 274.201 169.501ZM303.839 143.364V148.705H288.4V143.364H303.839ZM291.905 137.222H299.015V161.122C299.015 161.779 299.115 162.29 299.316 162.658C299.516 163.014 299.794 163.264 300.15 163.409C300.517 163.553 300.94 163.626 301.419 163.626C301.752 163.626 302.086 163.598 302.42 163.542C302.754 163.475 303.01 163.425 303.188 163.392L304.306 168.683C303.95 168.794 303.449 168.922 302.804 169.067C302.158 169.223 301.374 169.317 300.45 169.35C298.737 169.417 297.235 169.189 295.944 168.666C294.664 168.143 293.669 167.331 292.956 166.229C292.244 165.128 291.894 163.737 291.905 162.057V137.222Z" fill="white"/>
<path d="M24.9659 194.017V192.455H35.875V194.017H31.3011V207H29.5398V194.017H24.9659ZM40.092 207.256C39.4007 207.256 38.7733 207.125 38.2099 206.865C37.6464 206.6 37.199 206.219 36.8675 205.722C36.5361 205.22 36.3704 204.614 36.3704 203.903C36.3704 203.278 36.4935 202.772 36.7397 202.384C36.9859 201.991 37.315 201.683 37.7269 201.46C38.1388 201.238 38.5934 201.072 39.0906 200.963C39.5924 200.849 40.0967 200.759 40.6033 200.693C41.2662 200.608 41.8036 200.544 42.2156 200.501C42.6322 200.454 42.9353 200.376 43.1246 200.267C43.3188 200.158 43.4158 199.969 43.4158 199.699V199.642C43.4158 198.941 43.2241 198.397 42.8406 198.009C42.4618 197.62 41.8865 197.426 41.1147 197.426C40.3145 197.426 39.6871 197.601 39.2326 197.952C38.7781 198.302 38.4585 198.676 38.2738 199.074L36.6829 198.506C36.967 197.843 37.3458 197.327 37.8192 196.957C38.2975 196.583 38.8183 196.323 39.3817 196.176C39.9499 196.025 40.5086 195.949 41.0579 195.949C41.4083 195.949 41.8107 195.991 42.2653 196.077C42.7246 196.157 43.1673 196.325 43.5934 196.581C44.0243 196.837 44.3817 197.223 44.6658 197.739C44.9499 198.255 45.092 198.946 45.092 199.812V207H43.4158V205.523H43.3306C43.217 205.759 43.0276 206.013 42.7624 206.283C42.4973 206.553 42.1445 206.782 41.7042 206.972C41.2638 207.161 40.7264 207.256 40.092 207.256ZM40.3477 205.75C41.0105 205.75 41.5692 205.62 42.0238 205.359C42.4831 205.099 42.8287 204.763 43.0607 204.351C43.2975 203.939 43.4158 203.506 43.4158 203.051V201.517C43.3448 201.602 43.1886 201.68 42.9471 201.751C42.7103 201.818 42.4357 201.877 42.1232 201.929C41.8155 201.976 41.5148 202.019 41.2212 202.057C40.9324 202.09 40.698 202.118 40.5181 202.142C40.0825 202.199 39.6753 202.291 39.2965 202.419C38.9225 202.542 38.6194 202.729 38.3874 202.98C38.1602 203.226 38.0465 203.562 38.0465 203.989C38.0465 204.571 38.262 205.011 38.6928 205.31C39.1284 205.603 39.68 205.75 40.3477 205.75ZM55.8786 198.534L54.3729 198.96C54.2782 198.709 54.1385 198.465 53.9538 198.229C53.7739 197.987 53.5277 197.788 53.2152 197.632C52.9027 197.476 52.5026 197.398 52.0149 197.398C51.3473 197.398 50.791 197.552 50.3459 197.859C49.9055 198.162 49.6854 198.548 49.6854 199.017C49.6854 199.434 49.8369 199.763 50.1399 200.004C50.4429 200.246 50.9164 200.447 51.5604 200.608L53.1797 201.006C54.1551 201.242 54.8819 201.605 55.3601 202.092C55.8383 202.575 56.0774 203.198 56.0774 203.96C56.0774 204.585 55.8975 205.144 55.5376 205.636C55.1825 206.129 54.6854 206.517 54.0462 206.801C53.407 207.085 52.6636 207.227 51.8161 207.227C50.7034 207.227 49.7824 206.986 49.0533 206.503C48.3241 206.02 47.8625 205.314 47.6683 204.386L49.2592 203.989C49.4107 204.576 49.6972 205.016 50.1186 205.31C50.5447 205.603 51.1011 205.75 51.7876 205.75C52.5689 205.75 53.1892 205.584 53.6484 205.253C54.1125 204.917 54.3445 204.514 54.3445 204.045C54.3445 203.667 54.2119 203.349 53.9467 203.094C53.6816 202.833 53.2744 202.639 52.7251 202.511L50.907 202.085C49.9079 201.848 49.174 201.482 48.7053 200.984C48.2412 200.482 48.0092 199.855 48.0092 199.102C48.0092 198.487 48.1821 197.942 48.5277 197.469C48.8781 196.995 49.3539 196.624 49.9553 196.354C50.5613 196.084 51.2479 195.949 52.0149 195.949C53.0945 195.949 53.942 196.186 54.5575 196.659C55.1778 197.133 55.6181 197.758 55.8786 198.534ZM60.163 203.023L60.1346 200.949H60.4755L65.2482 196.091H67.3221L62.2369 201.233H62.0948L60.163 203.023ZM58.6005 207V192.455H60.2766V207H58.6005ZM65.5323 207L61.271 201.602L62.4641 200.438L67.663 207H65.5323ZM77.2067 198.534L75.701 198.96C75.6063 198.709 75.4666 198.465 75.282 198.229C75.102 197.987 74.8558 197.788 74.5433 197.632C74.2308 197.476 73.8307 197.398 73.343 197.398C72.6754 197.398 72.1191 197.552 71.674 197.859C71.2337 198.162 71.0135 198.548 71.0135 199.017C71.0135 199.434 71.165 199.763 71.468 200.004C71.7711 200.246 72.2446 200.447 72.8885 200.608L74.5078 201.006C75.4832 201.242 76.21 201.605 76.6882 202.092C77.1664 202.575 77.4055 203.198 77.4055 203.96C77.4055 204.585 77.2256 205.144 76.8658 205.636C76.5107 206.129 76.0135 206.517 75.3743 206.801C74.7351 207.085 73.9917 207.227 73.1442 207.227C72.0315 207.227 71.1106 206.986 70.3814 206.503C69.6522 206.02 69.1906 205.314 68.9964 204.386L70.5874 203.989C70.7389 204.576 71.0253 205.016 71.4467 205.31C71.8729 205.603 72.4292 205.75 73.1158 205.75C73.897 205.75 74.5173 205.584 74.9766 205.253C75.4406 204.917 75.6726 204.514 75.6726 204.045C75.6726 203.667 75.54 203.349 75.2749 203.094C75.0097 202.833 74.6025 202.639 74.0533 202.511L72.2351 202.085C71.236 201.848 70.5021 201.482 70.0334 200.984C69.5694 200.482 69.3374 199.855 69.3374 199.102C69.3374 198.487 69.5102 197.942 69.8558 197.469C70.2062 196.995 70.6821 196.624 71.2834 196.354C71.8894 196.084 72.576 195.949 73.343 195.949C74.4226 195.949 75.2701 196.186 75.8857 196.659C76.5059 197.133 76.9463 197.758 77.2067 198.534ZM88.7638 207.256C88.0726 207.256 87.4452 207.125 86.8817 206.865C86.3183 206.6 85.8709 206.219 85.5394 205.722C85.208 205.22 85.0423 204.614 85.0423 203.903C85.0423 203.278 85.1654 202.772 85.4116 202.384C85.6578 201.991 85.9869 201.683 86.3988 201.46C86.8107 201.238 87.2653 201.072 87.7624 200.963C88.2643 200.849 88.7686 200.759 89.2752 200.693C89.9381 200.608 90.4755 200.544 90.8874 200.501C91.3041 200.454 91.6071 200.376 91.7965 200.267C91.9906 200.158 92.0877 199.969 92.0877 199.699V199.642C92.0877 198.941 91.896 198.397 91.5124 198.009C91.1336 197.62 90.5584 197.426 89.7866 197.426C88.9864 197.426 88.359 197.601 87.9045 197.952C87.4499 198.302 87.1303 198.676 86.9457 199.074L85.3548 198.506C85.6388 197.843 86.0176 197.327 86.4911 196.957C86.9693 196.583 87.4902 196.323 88.0536 196.176C88.6218 196.025 89.1805 195.949 89.7298 195.949C90.0801 195.949 90.4826 195.991 90.9371 196.077C91.3964 196.157 91.8391 196.325 92.2653 196.581C92.6961 196.837 93.0536 197.223 93.3377 197.739C93.6218 198.255 93.7638 198.946 93.7638 199.812V207H92.0877V205.523H92.0025C91.8888 205.759 91.6995 206.013 91.4343 206.283C91.1692 206.553 90.8164 206.782 90.3761 206.972C89.9357 207.161 89.3983 207.256 88.7638 207.256ZM89.0195 205.75C89.6824 205.75 90.2411 205.62 90.6957 205.359C91.1549 205.099 91.5006 204.763 91.7326 204.351C91.9693 203.939 92.0877 203.506 92.0877 203.051V201.517C92.0167 201.602 91.8604 201.68 91.619 201.751C91.3822 201.818 91.1076 201.877 90.7951 201.929C90.4873 201.976 90.1867 202.019 89.8931 202.057C89.6043 202.09 89.3699 202.118 89.19 202.142C88.7544 202.199 88.3472 202.291 87.9684 202.419C87.5943 202.542 87.2913 202.729 87.0593 202.98C86.832 203.226 86.7184 203.562 86.7184 203.989C86.7184 204.571 86.9338 205.011 87.3647 205.31C87.8003 205.603 88.3519 205.75 89.0195 205.75ZM96.8232 207V196.091H98.4425V197.739H98.5561C98.755 197.199 99.1148 196.761 99.6357 196.425C100.156 196.089 100.744 195.92 101.397 195.92C101.52 195.92 101.674 195.923 101.859 195.928C102.043 195.932 102.183 195.939 102.278 195.949V197.653C102.221 197.639 102.091 197.618 101.887 197.589C101.688 197.556 101.478 197.54 101.255 197.54C100.725 197.54 100.251 197.651 99.8345 197.874C99.4226 198.091 99.0959 198.394 98.8544 198.783C98.6177 199.166 98.4993 199.604 98.4993 200.097V207H96.8232ZM108.506 207.227C107.455 207.227 106.549 206.995 105.786 206.531C105.029 206.062 104.444 205.409 104.032 204.571C103.625 203.728 103.421 202.748 103.421 201.631C103.421 200.513 103.625 199.528 104.032 198.676C104.444 197.819 105.017 197.152 105.751 196.673C106.489 196.19 107.351 195.949 108.336 195.949C108.904 195.949 109.465 196.044 110.019 196.233C110.573 196.422 111.077 196.73 111.532 197.156C111.987 197.578 112.349 198.136 112.619 198.832C112.888 199.528 113.023 200.385 113.023 201.403V202.114H104.614V200.665H111.319C111.319 200.049 111.196 199.5 110.95 199.017C110.708 198.534 110.362 198.153 109.913 197.874C109.468 197.594 108.942 197.455 108.336 197.455C107.668 197.455 107.091 197.62 106.603 197.952C106.12 198.278 105.748 198.705 105.488 199.23C105.228 199.756 105.097 200.319 105.097 200.92V201.886C105.097 202.71 105.239 203.409 105.523 203.982C105.812 204.55 106.212 204.983 106.724 205.281C107.235 205.575 107.829 205.722 108.506 205.722C108.947 205.722 109.344 205.66 109.7 205.537C110.059 205.409 110.37 205.22 110.63 204.969C110.89 204.713 111.092 204.396 111.234 204.017L112.853 204.472C112.683 205.021 112.396 205.504 111.994 205.92C111.591 206.332 111.094 206.654 110.502 206.886C109.91 207.114 109.245 207.227 108.506 207.227ZM121.425 207V192.455H123.102V197.824H123.244C123.367 197.634 123.537 197.393 123.755 197.099C123.978 196.801 124.295 196.536 124.707 196.304C125.123 196.067 125.687 195.949 126.397 195.949C127.316 195.949 128.125 196.179 128.826 196.638C129.527 197.097 130.074 197.748 130.467 198.591C130.86 199.434 131.056 200.428 131.056 201.574C131.056 202.729 130.86 203.731 130.467 204.578C130.074 205.421 129.529 206.074 128.833 206.538C128.137 206.998 127.335 207.227 126.425 207.227C125.725 207.227 125.164 207.111 124.742 206.879C124.321 206.643 123.996 206.375 123.769 206.077C123.542 205.774 123.367 205.523 123.244 205.324H123.045V207H121.425ZM123.073 201.545C123.073 202.369 123.194 203.096 123.435 203.726C123.677 204.351 124.03 204.841 124.494 205.196C124.958 205.546 125.526 205.722 126.198 205.722C126.899 205.722 127.484 205.537 127.952 205.168C128.426 204.794 128.781 204.292 129.018 203.662C129.259 203.027 129.38 202.322 129.38 201.545C129.38 200.778 129.262 200.087 129.025 199.472C128.793 198.851 128.44 198.361 127.967 198.001C127.498 197.637 126.908 197.455 126.198 197.455C125.516 197.455 124.943 197.627 124.479 197.973C124.015 198.314 123.665 198.792 123.428 199.408C123.192 200.018 123.073 200.731 123.073 201.545ZM138.194 207.227C137.143 207.227 136.236 206.995 135.474 206.531C134.716 206.062 134.131 205.409 133.719 204.571C133.312 203.728 133.109 202.748 133.109 201.631C133.109 200.513 133.312 199.528 133.719 198.676C134.131 197.819 134.704 197.152 135.438 196.673C136.177 196.19 137.039 195.949 138.023 195.949C138.592 195.949 139.153 196.044 139.707 196.233C140.261 196.422 140.765 196.73 141.219 197.156C141.674 197.578 142.036 198.136 142.306 198.832C142.576 199.528 142.711 200.385 142.711 201.403V202.114H134.302V200.665H141.006C141.006 200.049 140.883 199.5 140.637 199.017C140.396 198.534 140.05 198.153 139.6 197.874C139.155 197.594 138.629 197.455 138.023 197.455C137.356 197.455 136.778 197.62 136.29 197.952C135.808 198.278 135.436 198.705 135.175 199.23C134.915 199.756 134.785 200.319 134.785 200.92V201.886C134.785 202.71 134.927 203.409 135.211 203.982C135.5 204.55 135.9 204.983 136.411 205.281C136.923 205.575 137.517 205.722 138.194 205.722C138.634 205.722 139.032 205.66 139.387 205.537C139.747 205.409 140.057 205.22 140.317 204.969C140.578 204.713 140.779 204.396 140.921 204.017L142.54 204.472C142.37 205.021 142.084 205.504 141.681 205.92C141.279 206.332 140.781 206.654 140.19 206.886C139.598 207.114 138.933 207.227 138.194 207.227ZM150.005 196.091V197.511H144.352V196.091H150.005ZM145.999 193.477H147.675V203.875C147.675 204.348 147.744 204.704 147.881 204.94C148.023 205.172 148.203 205.329 148.421 205.409C148.644 205.485 148.878 205.523 149.124 205.523C149.309 205.523 149.46 205.513 149.579 205.494C149.697 205.471 149.792 205.452 149.863 205.438L150.204 206.943C150.09 206.986 149.932 207.028 149.728 207.071C149.524 207.118 149.266 207.142 148.954 207.142C148.48 207.142 148.016 207.04 147.562 206.837C147.112 206.633 146.738 206.323 146.44 205.906C146.146 205.49 145.999 204.964 145.999 204.33V193.477ZM157.271 196.091V197.511H151.617V196.091H157.271ZM153.265 193.477H154.941V203.875C154.941 204.348 155.01 204.704 155.147 204.94C155.289 205.172 155.469 205.329 155.687 205.409C155.909 205.485 156.144 205.523 156.39 205.523C156.575 205.523 156.726 205.513 156.844 205.494C156.963 205.471 157.058 205.452 157.129 205.438L157.469 206.943C157.356 206.986 157.197 207.028 156.994 207.071C156.79 207.118 156.532 207.142 156.219 207.142C155.746 207.142 155.282 207.04 154.827 206.837C154.378 206.633 154.004 206.323 153.705 205.906C153.412 205.49 153.265 204.964 153.265 204.33V193.477ZM164.249 207.227C163.197 207.227 162.291 206.995 161.528 206.531C160.771 206.062 160.186 205.409 159.774 204.571C159.367 203.728 159.163 202.748 159.163 201.631C159.163 200.513 159.367 199.528 159.774 198.676C160.186 197.819 160.759 197.152 161.493 196.673C162.232 196.19 163.093 195.949 164.078 195.949C164.646 195.949 165.207 196.044 165.761 196.233C166.315 196.422 166.82 196.73 167.274 197.156C167.729 197.578 168.091 198.136 168.361 198.832C168.631 199.528 168.766 200.385 168.766 201.403V202.114H160.357V200.665H167.061C167.061 200.049 166.938 199.5 166.692 199.017C166.45 198.534 166.105 198.153 165.655 197.874C165.21 197.594 164.684 197.455 164.078 197.455C163.411 197.455 162.833 197.62 162.345 197.952C161.862 198.278 161.491 198.705 161.23 199.23C160.97 199.756 160.839 200.319 160.839 200.92V201.886C160.839 202.71 160.982 203.409 161.266 203.982C161.554 204.55 161.955 204.983 162.466 205.281C162.977 205.575 163.571 205.722 164.249 205.722C164.689 205.722 165.087 205.66 165.442 205.537C165.802 205.409 166.112 205.22 166.372 204.969C166.633 204.713 166.834 204.396 166.976 204.017L168.595 204.472C168.425 205.021 168.138 205.504 167.736 205.92C167.333 206.332 166.836 206.654 166.244 206.886C165.652 207.114 164.987 207.227 164.249 207.227ZM171.315 207V196.091H172.935V197.739H173.048C173.247 197.199 173.607 196.761 174.128 196.425C174.649 196.089 175.236 195.92 175.889 195.92C176.012 195.92 176.166 195.923 176.351 195.928C176.536 195.932 176.675 195.939 176.77 195.949V197.653C176.713 197.639 176.583 197.618 176.379 197.589C176.18 197.556 175.97 197.54 175.747 197.54C175.217 197.54 174.743 197.651 174.327 197.874C173.915 198.091 173.588 198.394 173.347 198.783C173.11 199.166 172.991 199.604 172.991 200.097V207H171.315ZM186.853 207L183.529 196.091H185.291L187.649 204.443H187.762L190.092 196.091H191.882L194.183 204.415H194.297L196.654 196.091H198.416L195.092 207H193.444L191.058 198.619H190.887L188.501 207H186.853ZM200.632 207V196.091H202.308V207H200.632ZM201.484 194.273C201.157 194.273 200.876 194.161 200.639 193.939C200.407 193.716 200.291 193.449 200.291 193.136C200.291 192.824 200.407 192.556 200.639 192.334C200.876 192.111 201.157 192 201.484 192C201.811 192 202.09 192.111 202.322 192.334C202.559 192.556 202.677 192.824 202.677 193.136C202.677 193.449 202.559 193.716 202.322 193.939C202.09 194.161 201.811 194.273 201.484 194.273ZM210.122 196.091V197.511H204.469V196.091H210.122ZM206.116 193.477H207.793V203.875C207.793 204.348 207.861 204.704 207.999 204.94C208.141 205.172 208.321 205.329 208.538 205.409C208.761 205.485 208.995 205.523 209.241 205.523C209.426 205.523 209.578 205.513 209.696 205.494C209.814 205.471 209.909 205.452 209.98 205.438L210.321 206.943C210.207 206.986 210.049 207.028 209.845 207.071C209.642 207.118 209.384 207.142 209.071 207.142C208.598 207.142 208.134 207.04 207.679 206.837C207.229 206.633 206.855 206.323 206.557 205.906C206.263 205.49 206.116 204.964 206.116 204.33V193.477ZM214.554 200.438V207H212.878V192.455H214.554V197.795H214.696C214.952 197.232 215.335 196.785 215.847 196.453C216.363 196.117 217.049 195.949 217.906 195.949C218.65 195.949 219.301 196.098 219.859 196.396C220.418 196.69 220.851 197.142 221.159 197.753C221.472 198.359 221.628 199.131 221.628 200.068V207H219.952V200.182C219.952 199.315 219.727 198.645 219.277 198.172C218.832 197.694 218.214 197.455 217.423 197.455C216.874 197.455 216.382 197.571 215.946 197.803C215.515 198.035 215.174 198.373 214.923 198.818C214.677 199.263 214.554 199.803 214.554 200.438ZM233.529 207.256C232.838 207.256 232.211 207.125 231.647 206.865C231.084 206.6 230.636 206.219 230.305 205.722C229.974 205.22 229.808 204.614 229.808 203.903C229.808 203.278 229.931 202.772 230.177 202.384C230.423 201.991 230.752 201.683 231.164 201.46C231.576 201.238 232.031 201.072 232.528 200.963C233.03 200.849 233.534 200.759 234.041 200.693C234.704 200.608 235.241 200.544 235.653 200.501C236.07 200.454 236.373 200.376 236.562 200.267C236.756 200.158 236.853 199.969 236.853 199.699V199.642C236.853 198.941 236.662 198.397 236.278 198.009C235.899 197.62 235.324 197.426 234.552 197.426C233.752 197.426 233.125 197.601 232.67 197.952C232.216 198.302 231.896 198.676 231.711 199.074L230.12 198.506C230.404 197.843 230.783 197.327 231.257 196.957C231.735 196.583 232.256 196.323 232.819 196.176C233.387 196.025 233.946 195.949 234.495 195.949C234.846 195.949 235.248 195.991 235.703 196.077C236.162 196.157 236.605 196.325 237.031 196.581C237.462 196.837 237.819 197.223 238.103 197.739C238.387 198.255 238.529 198.946 238.529 199.812V207H236.853V205.523H236.768C236.654 205.759 236.465 206.013 236.2 206.283C235.935 206.553 235.582 206.782 235.142 206.972C234.701 207.161 234.164 207.256 233.529 207.256ZM233.785 205.75C234.448 205.75 235.007 205.62 235.461 205.359C235.921 205.099 236.266 204.763 236.498 204.351C236.735 203.939 236.853 203.506 236.853 203.051V201.517C236.782 201.602 236.626 201.68 236.385 201.751C236.148 201.818 235.873 201.877 235.561 201.929C235.253 201.976 234.952 202.019 234.659 202.057C234.37 202.09 234.136 202.118 233.956 202.142C233.52 202.199 233.113 202.291 232.734 202.419C232.36 202.542 232.057 202.729 231.825 202.98C231.598 203.226 231.484 203.562 231.484 203.989C231.484 204.571 231.699 205.011 232.13 205.31C232.566 205.603 233.118 205.75 233.785 205.75ZM251.958 196.091V197.511H246.305V196.091H251.958ZM247.952 193.477H249.629V203.875C249.629 204.348 249.697 204.704 249.835 204.94C249.977 205.172 250.156 205.329 250.374 205.409C250.597 205.485 250.831 205.523 251.077 205.523C251.262 205.523 251.414 205.513 251.532 205.494C251.65 205.471 251.745 205.452 251.816 205.438L252.157 206.943C252.043 206.986 251.885 207.028 251.681 207.071C251.478 207.118 251.219 207.142 250.907 207.142C250.433 207.142 249.969 207.04 249.515 206.837C249.065 206.633 248.691 206.323 248.393 205.906C248.099 205.49 247.952 204.964 247.952 204.33V193.477ZM258.936 207.227C257.885 207.227 256.978 206.995 256.216 206.531C255.458 206.062 254.874 205.409 254.462 204.571C254.054 203.728 253.851 202.748 253.851 201.631C253.851 200.513 254.054 199.528 254.462 198.676C254.874 197.819 255.446 197.152 256.18 196.673C256.919 196.19 257.781 195.949 258.766 195.949C259.334 195.949 259.895 196.044 260.449 196.233C261.003 196.422 261.507 196.73 261.962 197.156C262.416 197.578 262.778 198.136 263.048 198.832C263.318 199.528 263.453 200.385 263.453 201.403V202.114H255.044V200.665H261.749C261.749 200.049 261.625 199.5 261.379 199.017C261.138 198.534 260.792 198.153 260.342 197.874C259.897 197.594 259.372 197.455 258.766 197.455C258.098 197.455 257.52 197.62 257.033 197.952C256.55 198.278 256.178 198.705 255.918 199.23C255.657 199.756 255.527 200.319 255.527 200.92V201.886C255.527 202.71 255.669 203.409 255.953 203.982C256.242 204.55 256.642 204.983 257.153 205.281C257.665 205.575 258.259 205.722 258.936 205.722C259.376 205.722 259.774 205.66 260.129 205.537C260.489 205.409 260.799 205.22 261.06 204.969C261.32 204.713 261.521 204.396 261.663 204.017L263.283 204.472C263.112 205.021 262.826 205.504 262.423 205.92C262.021 206.332 261.524 206.654 260.932 206.886C260.34 207.114 259.675 207.227 258.936 207.227ZM269.213 207.256C268.522 207.256 267.894 207.125 267.331 206.865C266.768 206.6 266.32 206.219 265.989 205.722C265.657 205.22 265.491 204.614 265.491 203.903C265.491 203.278 265.615 202.772 265.861 202.384C266.107 201.991 266.436 201.683 266.848 201.46C267.26 201.238 267.714 201.072 268.212 200.963C268.714 200.849 269.218 200.759 269.724 200.693C270.387 200.608 270.925 200.544 271.337 200.501C271.753 200.454 272.056 200.376 272.246 200.267C272.44 200.158 272.537 199.969 272.537 199.699V199.642C272.537 198.941 272.345 198.397 271.962 198.009C271.583 197.62 271.008 197.426 270.236 197.426C269.436 197.426 268.808 197.601 268.354 197.952C267.899 198.302 267.58 198.676 267.395 199.074L265.804 198.506C266.088 197.843 266.467 197.327 266.94 196.957C267.419 196.583 267.939 196.323 268.503 196.176C269.071 196.025 269.63 195.949 270.179 195.949C270.529 195.949 270.932 195.991 271.386 196.077C271.846 196.157 272.288 196.325 272.714 196.581C273.145 196.837 273.503 197.223 273.787 197.739C274.071 198.255 274.213 198.946 274.213 199.812V207H272.537V205.523H272.452C272.338 205.759 272.149 206.013 271.884 206.283C271.618 206.553 271.266 206.782 270.825 206.972C270.385 207.161 269.848 207.256 269.213 207.256ZM269.469 205.75C270.132 205.75 270.69 205.62 271.145 205.359C271.604 205.099 271.95 204.763 272.182 204.351C272.419 203.939 272.537 203.506 272.537 203.051V201.517C272.466 201.602 272.31 201.68 272.068 201.751C271.831 201.818 271.557 201.877 271.244 201.929C270.937 201.976 270.636 202.019 270.342 202.057C270.054 202.09 269.819 202.118 269.639 202.142C269.204 202.199 268.796 202.291 268.418 202.419C268.044 202.542 267.741 202.729 267.509 202.98C267.281 203.226 267.168 203.562 267.168 203.989C267.168 204.571 267.383 205.011 267.814 205.31C268.25 205.603 268.801 205.75 269.469 205.75ZM277.272 207V196.091H278.892V197.795H279.034C279.261 197.213 279.628 196.761 280.135 196.439C280.641 196.112 281.25 195.949 281.96 195.949C282.68 195.949 283.279 196.112 283.757 196.439C284.24 196.761 284.616 197.213 284.886 197.795H285C285.279 197.232 285.698 196.785 286.257 196.453C286.815 196.117 287.485 195.949 288.267 195.949C289.242 195.949 290.04 196.254 290.66 196.865C291.28 197.471 291.591 198.416 291.591 199.699V207H289.914V199.699C289.914 198.894 289.694 198.319 289.254 197.973C288.814 197.627 288.295 197.455 287.699 197.455C286.931 197.455 286.337 197.687 285.916 198.151C285.494 198.61 285.284 199.192 285.284 199.898V207H283.579V199.528C283.579 198.908 283.378 198.409 282.975 198.03C282.573 197.646 282.055 197.455 281.42 197.455C280.984 197.455 280.577 197.571 280.199 197.803C279.824 198.035 279.521 198.357 279.289 198.768C279.062 199.176 278.949 199.647 278.949 200.182V207H277.272ZM296.871 192.455L296.729 202.909H295.081L294.939 192.455H296.871ZM295.905 207.114C295.555 207.114 295.254 206.988 295.003 206.737C294.752 206.486 294.627 206.186 294.627 205.835C294.627 205.485 294.752 205.184 295.003 204.933C295.254 204.682 295.555 204.557 295.905 204.557C296.256 204.557 296.556 204.682 296.807 204.933C297.058 205.184 297.184 205.485 297.184 205.835C297.184 206.067 297.124 206.28 297.006 206.474C296.892 206.669 296.739 206.825 296.544 206.943C296.355 207.057 296.142 207.114 295.905 207.114Z" fill="white"/>
<path d="M114 228H24" stroke="#29ABE2" stroke-width="3" stroke-linecap="round"/>
</svg>
