<svg width="467" height="592" viewBox="0 0 467 592" fill="none" xmlns="http://www.w3.org/2000/svg">
<rect width="467" height="594" fill="#2A3647"/>
<path d="M59.5025 291.5H49.4513L64.7663 247.136H76.8537L92.147 291.5H82.0959L70.9833 257.274H70.6367L59.5025 291.5ZM58.8743 274.062H82.6158V281.384H58.8743V274.062ZM108.025 292.042C105.498 292.042 103.209 291.392 101.158 290.092C99.1222 288.778 97.5047 286.85 96.3061 284.308C95.1219 281.752 94.5298 278.618 94.5298 274.907C94.5298 271.094 95.1436 267.925 96.3711 265.397C97.5986 262.856 99.2305 260.957 101.267 259.7C103.317 258.429 105.563 257.794 108.004 257.794C109.866 257.794 111.419 258.112 112.661 258.747C113.917 259.368 114.928 260.148 115.694 261.087C116.473 262.011 117.065 262.921 117.47 263.816H117.751V247.136H126.958V291.5H117.86V286.171H117.47C117.037 287.095 116.423 288.012 115.629 288.922C114.849 289.818 113.831 290.561 112.574 291.153C111.332 291.746 109.816 292.042 108.025 292.042ZM110.95 284.698C112.437 284.698 113.693 284.294 114.719 283.485C115.759 282.662 116.553 281.514 117.102 280.041C117.665 278.568 117.946 276.842 117.946 274.864C117.946 272.885 117.672 271.167 117.123 269.708C116.574 268.25 115.78 267.123 114.74 266.329C113.701 265.535 112.437 265.137 110.95 265.137C109.433 265.137 108.155 265.549 107.115 266.372C106.076 267.195 105.289 268.336 104.754 269.795C104.22 271.253 103.953 272.943 103.953 274.864C103.953 276.799 104.22 278.51 104.754 279.998C105.303 281.471 106.09 282.626 107.115 283.463C108.155 284.287 109.433 284.698 110.95 284.698ZM146.805 292.042C144.278 292.042 141.989 291.392 139.939 290.092C137.902 288.778 136.285 286.85 135.086 284.308C133.902 281.752 133.31 278.618 133.31 274.907C133.31 271.094 133.924 267.925 135.151 265.397C136.379 262.856 138.011 260.957 140.047 259.7C142.098 258.429 144.343 257.794 146.784 257.794C148.647 257.794 150.199 258.112 151.441 258.747C152.698 259.368 153.708 260.148 154.474 261.087C155.254 262.011 155.846 262.921 156.25 263.816H156.532V247.136H165.738V291.5H156.64V286.171H156.25C155.817 287.095 155.203 288.012 154.409 288.922C153.629 289.818 152.611 290.561 151.354 291.153C150.113 291.746 148.596 292.042 146.805 292.042ZM149.73 284.698C151.217 284.698 152.474 284.294 153.499 283.485C154.539 282.662 155.333 281.514 155.882 280.041C156.445 278.568 156.727 276.842 156.727 274.864C156.727 272.885 156.452 271.167 155.903 269.708C155.355 268.25 154.56 267.123 153.521 266.329C152.481 265.535 151.217 265.137 149.73 265.137C148.214 265.137 146.935 265.549 145.896 266.372C144.856 267.195 144.069 268.336 143.535 269.795C143 271.253 142.733 272.943 142.733 274.864C142.733 276.799 143 278.51 143.535 279.998C144.083 281.471 144.87 282.626 145.896 283.463C146.935 284.287 148.214 284.698 149.73 284.698ZM202.477 292.15C199.069 292.15 196.137 291.428 193.682 289.984C191.241 288.525 189.364 286.503 188.05 283.918C186.75 281.333 186.1 278.358 186.1 274.994C186.1 271.585 186.757 268.596 188.071 266.026C189.4 263.441 191.285 261.426 193.725 259.982C196.166 258.523 199.069 257.794 202.433 257.794C205.336 257.794 207.878 258.321 210.058 259.375C212.239 260.43 213.965 261.91 215.236 263.816C216.506 265.722 217.207 267.961 217.337 270.531H208.629C208.383 268.871 207.733 267.535 206.679 266.524C205.639 265.498 204.275 264.986 202.585 264.986C201.155 264.986 199.906 265.376 198.837 266.156C197.783 266.921 196.96 268.04 196.368 269.513C195.776 270.986 195.48 272.77 195.48 274.864C195.48 276.987 195.769 278.792 196.346 280.279C196.938 281.767 197.769 282.9 198.837 283.68C199.906 284.46 201.155 284.85 202.585 284.85C203.639 284.85 204.585 284.633 205.423 284.2C206.275 283.767 206.975 283.138 207.524 282.315C208.087 281.478 208.455 280.474 208.629 279.304H217.337C217.192 281.846 216.499 284.084 215.257 286.02C214.03 287.94 212.333 289.442 210.167 290.525C208 291.608 205.437 292.15 202.477 292.15ZM238.278 292.15C234.914 292.15 232.004 291.435 229.549 290.005C227.108 288.561 225.223 286.554 223.895 283.983C222.566 281.398 221.902 278.402 221.902 274.994C221.902 271.557 222.566 268.553 223.895 265.982C225.223 263.397 227.108 261.39 229.549 259.96C232.004 258.516 234.914 257.794 238.278 257.794C241.643 257.794 244.546 258.516 246.987 259.96C249.442 261.39 251.333 263.397 252.662 265.982C253.991 268.553 254.655 271.557 254.655 274.994C254.655 278.402 253.991 281.398 252.662 283.983C251.333 286.554 249.442 288.561 246.987 290.005C244.546 291.435 241.643 292.15 238.278 292.15ZM238.322 285.001C239.853 285.001 241.131 284.568 242.156 283.702C243.181 282.821 243.954 281.622 244.474 280.106C245.008 278.589 245.275 276.864 245.275 274.929C245.275 272.993 245.008 271.268 244.474 269.751C243.954 268.235 243.181 267.036 242.156 266.156C241.131 265.275 239.853 264.834 238.322 264.834C236.777 264.834 235.477 265.275 234.423 266.156C233.383 267.036 232.596 268.235 232.061 269.751C231.542 271.268 231.282 272.993 231.282 274.929C231.282 276.864 231.542 278.589 232.061 280.106C232.596 281.622 233.383 282.821 234.423 283.702C235.477 284.568 236.777 285.001 238.322 285.001ZM269.883 272.264V291.5H260.655V258.227H269.45V264.098H269.84C270.576 262.163 271.811 260.632 273.544 259.505C275.277 258.364 277.378 257.794 279.848 257.794C282.158 257.794 284.173 258.299 285.891 259.31C287.61 260.321 288.946 261.765 289.899 263.643C290.852 265.506 291.328 267.73 291.328 270.315V291.5H282.1V271.961C282.115 269.925 281.595 268.336 280.541 267.195C279.487 266.04 278.035 265.462 276.187 265.462C274.945 265.462 273.847 265.73 272.894 266.264C271.955 266.798 271.219 267.578 270.685 268.603C270.165 269.614 269.898 270.835 269.883 272.264ZM316.299 258.227V265.159H296.262V258.227H316.299ZM300.811 250.256H310.039V281.276C310.039 282.128 310.169 282.792 310.429 283.268C310.689 283.731 311.05 284.056 311.512 284.243C311.989 284.431 312.537 284.525 313.158 284.525C313.592 284.525 314.025 284.489 314.458 284.417C314.891 284.33 315.223 284.265 315.454 284.222L316.906 291.088C316.444 291.233 315.794 291.399 314.956 291.587C314.119 291.789 313.101 291.912 311.902 291.955C309.678 292.042 307.728 291.746 306.053 291.067C304.392 290.388 303.1 289.334 302.176 287.904C301.251 286.474 300.797 284.669 300.811 282.489V250.256ZM331.798 292.128C329.676 292.128 327.784 291.76 326.123 291.023C324.462 290.272 323.148 289.168 322.18 287.709C321.227 286.236 320.751 284.402 320.751 282.207C320.751 280.359 321.09 278.806 321.769 277.55C322.448 276.293 323.372 275.282 324.542 274.517C325.711 273.752 327.04 273.174 328.527 272.784C330.029 272.394 331.603 272.12 333.25 271.961C335.185 271.759 336.745 271.571 337.929 271.398C339.113 271.21 339.972 270.936 340.506 270.575C341.041 270.214 341.308 269.679 341.308 268.972V268.842C341.308 267.47 340.875 266.408 340.008 265.657C339.156 264.906 337.943 264.531 336.369 264.531C334.708 264.531 333.387 264.899 332.405 265.636C331.423 266.358 330.773 267.268 330.455 268.365L321.921 267.672C322.354 265.65 323.206 263.903 324.477 262.43C325.747 260.942 327.387 259.801 329.394 259.007C331.416 258.198 333.755 257.794 336.412 257.794C338.261 257.794 340.03 258.011 341.72 258.444C343.424 258.877 344.933 259.549 346.247 260.458C347.575 261.368 348.622 262.538 349.388 263.968C350.153 265.383 350.536 267.08 350.536 269.058V291.5H341.785V286.886H341.525C340.99 287.926 340.275 288.843 339.38 289.637C338.485 290.417 337.409 291.031 336.152 291.478C334.896 291.912 333.445 292.128 331.798 292.128ZM334.441 285.76C335.799 285.76 336.997 285.492 338.037 284.958C339.077 284.409 339.893 283.673 340.485 282.749C341.077 281.824 341.373 280.777 341.373 279.608V276.077C341.084 276.264 340.687 276.438 340.182 276.597C339.691 276.741 339.135 276.878 338.514 277.008C337.893 277.124 337.272 277.232 336.651 277.333C336.03 277.42 335.466 277.499 334.961 277.571C333.878 277.73 332.932 277.983 332.123 278.33C331.315 278.676 330.686 279.145 330.239 279.738C329.791 280.315 329.567 281.037 329.567 281.904C329.567 283.16 330.022 284.121 330.932 284.785C331.856 285.435 333.026 285.76 334.441 285.76ZM372.729 292.15C369.32 292.15 366.389 291.428 363.934 289.984C361.493 288.525 359.616 286.503 358.302 283.918C357.002 281.333 356.352 278.358 356.352 274.994C356.352 271.585 357.009 268.596 358.323 266.026C359.652 263.441 361.537 261.426 363.977 259.982C366.418 258.523 369.32 257.794 372.685 257.794C375.588 257.794 378.13 258.321 380.31 259.375C382.491 260.43 384.217 261.91 385.487 263.816C386.758 265.722 387.459 267.961 387.589 270.531H378.881C378.635 268.871 377.985 267.535 376.931 266.524C375.891 265.498 374.527 264.986 372.837 264.986C371.407 264.986 370.158 265.376 369.089 266.156C368.035 266.921 367.212 268.04 366.62 269.513C366.028 270.986 365.732 272.77 365.732 274.864C365.732 276.987 366.021 278.792 366.598 280.279C367.19 281.767 368.021 282.9 369.089 283.68C370.158 284.46 371.407 284.85 372.837 284.85C373.891 284.85 374.837 284.633 375.675 284.2C376.527 283.767 377.227 283.138 377.776 282.315C378.339 281.478 378.707 280.474 378.881 279.304H387.589C387.444 281.846 386.751 284.084 385.509 286.02C384.282 287.94 382.585 289.442 380.419 290.525C378.252 291.608 375.689 292.15 372.729 292.15ZM411.195 258.227V265.159H391.157V258.227H411.195ZM395.706 250.256H404.934V281.276C404.934 282.128 405.064 282.792 405.324 283.268C405.584 283.731 405.945 284.056 406.407 284.243C406.884 284.431 407.433 284.525 408.054 284.525C408.487 284.525 408.92 284.489 409.354 284.417C409.787 284.33 410.119 284.265 410.35 284.222L411.801 291.088C411.339 291.233 410.689 291.399 409.852 291.587C409.014 291.789 407.996 291.912 406.797 291.955C404.573 292.042 402.624 291.746 400.949 291.067C399.288 290.388 397.995 289.334 397.071 287.904C396.147 286.474 395.692 284.669 395.706 282.489V250.256Z" fill="white"/>
<path d="M49.304 321.973V319.864H64.0312V321.973H57.8565V339.5H55.4787V321.973H49.304ZM69.7242 339.845C68.7909 339.845 67.944 339.669 67.1833 339.318C66.4227 338.96 65.8186 338.445 65.3712 337.774C64.9237 337.097 64.7 336.278 64.7 335.32C64.7 334.476 64.8662 333.792 65.1986 333.268C65.531 332.737 65.9752 332.322 66.5313 332.021C67.0874 331.721 67.7011 331.497 68.3722 331.35C69.0498 331.197 69.7306 331.075 70.4145 330.986C71.3094 330.871 72.0349 330.784 72.591 330.727C73.1535 330.663 73.5626 330.558 73.8183 330.411C74.0803 330.263 74.2114 330.008 74.2114 329.643V329.567C74.2114 328.621 73.9525 327.886 73.4347 327.362C72.9234 326.837 72.1468 326.575 71.1048 326.575C70.0246 326.575 69.1776 326.812 68.564 327.285C67.9504 327.758 67.5189 328.263 67.2696 328.8L65.1219 328.033C65.5054 327.138 66.0168 326.441 66.656 325.942C67.3016 325.437 68.0047 325.086 68.7654 324.888C69.5324 324.683 70.2867 324.581 71.0281 324.581C71.5012 324.581 72.0445 324.638 72.6581 324.754C73.2781 324.862 73.8758 325.089 74.4511 325.434C75.0328 325.779 75.5154 326.3 75.8989 326.997C76.2824 327.694 76.4742 328.627 76.4742 329.797V339.5H74.2114V337.506H74.0963C73.9429 337.825 73.6872 338.167 73.3293 338.532C72.9713 338.896 72.4951 339.206 71.9007 339.462C71.3062 339.717 70.5807 339.845 69.7242 339.845ZM70.0693 337.812C70.9642 337.812 71.7185 337.637 72.3321 337.285C72.9521 336.934 73.4188 336.48 73.732 335.924C74.0516 335.368 74.2114 334.783 74.2114 334.169V332.098C74.1155 332.213 73.9046 332.319 73.5786 332.414C73.259 332.504 72.8882 332.584 72.4664 332.654C72.0509 332.718 71.645 332.776 71.2487 332.827C70.8588 332.871 70.5423 332.91 70.2995 332.942C69.7114 333.018 69.1617 333.143 68.6503 333.316C68.1453 333.482 67.7362 333.734 67.423 334.073C67.1162 334.406 66.9628 334.859 66.9628 335.435C66.9628 336.221 67.2536 336.815 67.8353 337.218C68.4234 337.614 69.1681 337.812 70.0693 337.812ZM91.036 328.071L89.0034 328.646C88.8755 328.308 88.687 327.978 88.4377 327.659C88.1948 327.333 87.8624 327.064 87.4405 326.853C87.0186 326.642 86.4785 326.537 85.8201 326.537C84.9189 326.537 84.1678 326.745 83.5669 327.16C82.9725 327.569 82.6752 328.09 82.6752 328.723C82.6752 329.286 82.8798 329.73 83.2889 330.056C83.698 330.382 84.3372 330.653 85.2065 330.871L87.3926 331.408C88.7093 331.727 89.6905 332.216 90.3361 332.875C90.9817 333.527 91.3045 334.367 91.3045 335.396C91.3045 336.24 91.0616 336.994 90.5758 337.659C90.0964 338.324 89.4252 338.848 88.5623 339.232C87.6994 339.615 86.6958 339.807 85.5517 339.807C84.0495 339.807 82.8063 339.481 81.8219 338.829C80.8375 338.177 80.2143 337.224 79.9522 335.972L82.1 335.435C82.3045 336.227 82.6912 336.822 83.2601 337.218C83.8354 337.614 84.5865 337.812 85.5133 337.812C86.568 337.812 87.4054 337.589 88.0254 337.141C88.6518 336.687 88.965 336.144 88.965 335.511C88.965 335 88.786 334.572 88.4281 334.227C88.0701 333.875 87.5204 333.613 86.7789 333.44L84.3244 332.865C82.9757 332.545 81.9849 332.05 81.3521 331.379C80.7257 330.701 80.4125 329.854 80.4125 328.838C80.4125 328.007 80.6458 327.272 81.1124 326.633C81.5854 325.994 82.2278 325.492 83.0396 325.127C83.8578 324.763 84.7846 324.581 85.8201 324.581C87.2775 324.581 88.4217 324.901 89.2527 325.54C90.09 326.179 90.6845 327.023 91.036 328.071ZM96.82 334.131L96.7817 331.331H97.2419L103.685 324.773H106.485L99.6198 331.714H99.428L96.82 334.131ZM94.7107 339.5V319.864H96.9735V339.5H94.7107ZM104.069 339.5L98.3158 332.213L99.9266 330.641L106.945 339.5H104.069ZM119.829 328.071L117.796 328.646C117.669 328.308 117.48 327.978 117.231 327.659C116.988 327.333 116.655 327.064 116.233 326.853C115.812 326.642 115.271 326.537 114.613 326.537C113.712 326.537 112.961 326.745 112.36 327.16C111.765 327.569 111.468 328.09 111.468 328.723C111.468 329.286 111.673 329.73 112.082 330.056C112.491 330.382 113.13 330.653 113.999 330.871L116.186 331.408C117.502 331.727 118.483 332.216 119.129 332.875C119.775 333.527 120.097 334.367 120.097 335.396C120.097 336.24 119.855 336.994 119.369 337.659C118.889 338.324 118.218 338.848 117.355 339.232C116.492 339.615 115.489 339.807 114.345 339.807C112.843 339.807 111.599 339.481 110.615 338.829C109.631 338.177 109.007 337.224 108.745 335.972L110.893 335.435C111.097 336.227 111.484 336.822 112.053 337.218C112.628 337.614 113.379 337.812 114.306 337.812C115.361 337.812 116.198 337.589 116.818 337.141C117.445 336.687 117.758 336.144 117.758 335.511C117.758 335 117.579 334.572 117.221 334.227C116.863 333.875 116.313 333.613 115.572 333.44L113.117 332.865C111.769 332.545 110.778 332.05 110.145 331.379C109.519 330.701 109.205 329.854 109.205 328.838C109.205 328.007 109.439 327.272 109.905 326.633C110.378 325.994 111.021 325.492 111.833 325.127C112.651 324.763 113.578 324.581 114.613 324.581C116.07 324.581 117.215 324.901 118.046 325.54C118.883 326.179 119.477 327.023 119.829 328.071ZM135.431 339.845C134.498 339.845 133.651 339.669 132.89 339.318C132.13 338.96 131.526 338.445 131.078 337.774C130.631 337.097 130.407 336.278 130.407 335.32C130.407 334.476 130.573 333.792 130.906 333.268C131.238 332.737 131.682 332.322 132.238 332.021C132.794 331.721 133.408 331.497 134.079 331.35C134.757 331.197 135.438 331.075 136.122 330.986C137.016 330.871 137.742 330.784 138.298 330.727C138.861 330.663 139.27 330.558 139.525 330.411C139.787 330.263 139.918 330.008 139.918 329.643V329.567C139.918 328.621 139.66 327.886 139.142 327.362C138.63 326.837 137.854 326.575 136.812 326.575C135.732 326.575 134.885 326.812 134.271 327.285C133.657 327.758 133.226 328.263 132.977 328.8L130.829 328.033C131.212 327.138 131.724 326.441 132.363 325.942C133.009 325.437 133.712 325.086 134.472 324.888C135.239 324.683 135.994 324.581 136.735 324.581C137.208 324.581 137.752 324.638 138.365 324.754C138.985 324.862 139.583 325.089 140.158 325.434C140.74 325.779 141.222 326.3 141.606 326.997C141.989 327.694 142.181 328.627 142.181 329.797V339.5H139.918V337.506H139.803C139.65 337.825 139.394 338.167 139.036 338.532C138.678 338.896 138.202 339.206 137.608 339.462C137.013 339.717 136.288 339.845 135.431 339.845ZM135.776 337.812C136.671 337.812 137.426 337.637 138.039 337.285C138.659 336.934 139.126 336.48 139.439 335.924C139.759 335.368 139.918 334.783 139.918 334.169V332.098C139.823 332.213 139.612 332.319 139.286 332.414C138.966 332.504 138.595 332.584 138.173 332.654C137.758 332.718 137.352 332.776 136.956 332.827C136.566 332.871 136.249 332.91 136.006 332.942C135.418 333.018 134.869 333.143 134.357 333.316C133.852 333.482 133.443 333.734 133.13 334.073C132.823 334.406 132.67 334.859 132.67 335.435C132.67 336.221 132.961 336.815 133.542 337.218C134.13 337.614 134.875 337.812 135.776 337.812ZM146.311 339.5V324.773H148.497V326.997H148.651C148.919 326.268 149.405 325.677 150.108 325.223C150.811 324.77 151.604 324.543 152.486 324.543C152.652 324.543 152.86 324.546 153.109 324.552C153.358 324.559 153.547 324.568 153.675 324.581V326.882C153.598 326.863 153.422 326.834 153.148 326.796C152.879 326.751 152.595 326.729 152.294 326.729C151.578 326.729 150.939 326.879 150.377 327.179C149.82 327.473 149.379 327.882 149.053 328.407C148.734 328.924 148.574 329.516 148.574 330.18V339.5H146.311ZM162.084 339.807C160.665 339.807 159.441 339.494 158.411 338.867C157.389 338.234 156.599 337.352 156.043 336.221C155.493 335.083 155.219 333.76 155.219 332.251C155.219 330.743 155.493 329.413 156.043 328.263C156.599 327.106 157.373 326.205 158.363 325.559C159.361 324.907 160.524 324.581 161.854 324.581C162.621 324.581 163.378 324.709 164.126 324.964C164.874 325.22 165.555 325.636 166.168 326.211C166.782 326.78 167.271 327.534 167.635 328.474C167.999 329.413 168.182 330.57 168.182 331.945V332.903H156.829V330.947H165.881C165.881 330.116 165.714 329.375 165.382 328.723C165.056 328.071 164.589 327.556 163.982 327.179C163.381 326.802 162.672 326.614 161.854 326.614C160.952 326.614 160.172 326.837 159.514 327.285C158.862 327.726 158.36 328.301 158.009 329.011C157.657 329.72 157.481 330.481 157.481 331.293V332.597C157.481 333.709 157.673 334.652 158.057 335.425C158.447 336.192 158.987 336.777 159.677 337.18C160.367 337.576 161.17 337.774 162.084 337.774C162.678 337.774 163.215 337.691 163.694 337.525C164.18 337.352 164.599 337.097 164.95 336.758C165.302 336.413 165.574 335.984 165.765 335.473L167.952 336.087C167.721 336.828 167.335 337.48 166.791 338.043C166.248 338.599 165.577 339.033 164.778 339.347C163.979 339.653 163.081 339.807 162.084 339.807ZM179.524 339.5V319.864H181.787V327.112H181.979C182.145 326.857 182.375 326.531 182.669 326.134C182.97 325.732 183.398 325.374 183.954 325.06C184.517 324.741 185.277 324.581 186.236 324.581C187.476 324.581 188.569 324.891 189.515 325.511C190.461 326.131 191.199 327.01 191.73 328.148C192.26 329.286 192.526 330.628 192.526 332.175C192.526 333.734 192.26 335.086 191.73 336.23C191.199 337.368 190.464 338.25 189.525 338.877C188.585 339.497 187.502 339.807 186.274 339.807C185.328 339.807 184.571 339.65 184.002 339.337C183.433 339.017 182.995 338.656 182.688 338.254C182.382 337.844 182.145 337.506 181.979 337.237H181.71V339.5H179.524ZM181.749 332.136C181.749 333.249 181.912 334.23 182.238 335.08C182.564 335.924 183.04 336.585 183.666 337.065C184.293 337.538 185.06 337.774 185.968 337.774C186.914 337.774 187.703 337.525 188.336 337.026C188.975 336.521 189.454 335.844 189.774 334.994C190.1 334.137 190.263 333.185 190.263 332.136C190.263 331.101 190.103 330.168 189.784 329.337C189.47 328.499 188.994 327.838 188.355 327.352C187.722 326.86 186.926 326.614 185.968 326.614C185.047 326.614 184.274 326.847 183.647 327.314C183.021 327.774 182.548 328.419 182.228 329.25C181.909 330.075 181.749 331.037 181.749 332.136ZM202.162 339.807C200.743 339.807 199.519 339.494 198.49 338.867C197.467 338.234 196.677 337.352 196.121 336.221C195.572 335.083 195.297 333.76 195.297 332.251C195.297 330.743 195.572 329.413 196.121 328.263C196.677 327.106 197.451 326.205 198.442 325.559C199.439 324.907 200.602 324.581 201.932 324.581C202.699 324.581 203.456 324.709 204.204 324.964C204.952 325.22 205.633 325.636 206.246 326.211C206.86 326.78 207.349 327.534 207.713 328.474C208.078 329.413 208.26 330.57 208.26 331.945V332.903H196.907V330.947H205.959C205.959 330.116 205.792 329.375 205.46 328.723C205.134 328.071 204.667 327.556 204.06 327.179C203.459 326.802 202.75 326.614 201.932 326.614C201.03 326.614 200.251 326.837 199.592 327.285C198.94 327.726 198.438 328.301 198.087 329.011C197.735 329.72 197.559 330.481 197.559 331.293V332.597C197.559 333.709 197.751 334.652 198.135 335.425C198.525 336.192 199.065 336.777 199.755 337.18C200.445 337.576 201.248 337.774 202.162 337.774C202.756 337.774 203.293 337.691 203.773 337.525C204.258 337.352 204.677 337.097 205.029 336.758C205.38 336.413 205.652 335.984 205.844 335.473L208.03 336.087C207.8 336.828 207.413 337.48 206.869 338.043C206.326 338.599 205.655 339.033 204.856 339.347C204.057 339.653 203.159 339.807 202.162 339.807ZM218.107 324.773V326.69H210.475V324.773H218.107ZM212.699 321.244H214.962V335.281C214.962 335.92 215.055 336.4 215.24 336.719C215.432 337.033 215.675 337.244 215.969 337.352C216.269 337.455 216.585 337.506 216.918 337.506C217.167 337.506 217.372 337.493 217.531 337.467C217.691 337.435 217.819 337.41 217.915 337.391L218.375 339.423C218.222 339.481 218.008 339.538 217.733 339.596C217.458 339.66 217.11 339.692 216.688 339.692C216.048 339.692 215.422 339.554 214.808 339.279C214.201 339.005 213.696 338.586 213.294 338.023C212.897 337.461 212.699 336.751 212.699 335.895V321.244ZM227.915 324.773V326.69H220.283V324.773H227.915ZM222.508 321.244H224.77V335.281C224.77 335.92 224.863 336.4 225.048 336.719C225.24 337.033 225.483 337.244 225.777 337.352C226.078 337.455 226.394 337.506 226.726 337.506C226.976 337.506 227.18 337.493 227.34 337.467C227.5 337.435 227.628 337.41 227.724 337.391L228.184 339.423C228.03 339.481 227.816 339.538 227.541 339.596C227.267 339.66 226.918 339.692 226.496 339.692C225.857 339.692 225.231 339.554 224.617 339.279C224.01 339.005 223.505 338.586 223.102 338.023C222.706 337.461 222.508 336.751 222.508 335.895V321.244ZM237.336 339.807C235.917 339.807 234.692 339.494 233.663 338.867C232.641 338.234 231.851 337.352 231.295 336.221C230.745 335.083 230.471 333.76 230.471 332.251C230.471 330.743 230.745 329.413 231.295 328.263C231.851 327.106 232.625 326.205 233.615 325.559C234.613 324.907 235.776 324.581 237.105 324.581C237.873 324.581 238.63 324.709 239.378 324.964C240.126 325.22 240.806 325.636 241.42 326.211C242.034 326.78 242.523 327.534 242.887 328.474C243.251 329.413 243.434 330.57 243.434 331.945V332.903H232.081V330.947H241.132C241.132 330.116 240.966 329.375 240.634 328.723C240.308 328.071 239.841 327.556 239.234 327.179C238.633 326.802 237.924 326.614 237.105 326.614C236.204 326.614 235.424 326.837 234.766 327.285C234.114 327.726 233.612 328.301 233.261 329.011C232.909 329.72 232.733 330.481 232.733 331.293V332.597C232.733 333.709 232.925 334.652 233.309 335.425C233.699 336.192 234.239 336.777 234.929 337.18C235.619 337.576 236.422 337.774 237.336 337.774C237.93 337.774 238.467 337.691 238.946 337.525C239.432 337.352 239.851 337.097 240.202 336.758C240.554 336.413 240.826 335.984 241.017 335.473L243.203 336.087C242.973 336.828 242.587 337.48 242.043 338.043C241.5 338.599 240.829 339.033 240.03 339.347C239.231 339.653 238.333 339.807 237.336 339.807ZM246.876 339.5V324.773H249.062V326.997H249.215C249.484 326.268 249.969 325.677 250.673 325.223C251.376 324.77 252.168 324.543 253.05 324.543C253.217 324.543 253.424 324.546 253.674 324.552C253.923 324.559 254.112 324.568 254.239 324.581V326.882C254.163 326.863 253.987 326.834 253.712 326.796C253.444 326.751 253.159 326.729 252.859 326.729C252.143 326.729 251.504 326.879 250.941 327.179C250.385 327.473 249.944 327.882 249.618 328.407C249.298 328.924 249.138 329.516 249.138 330.18V339.5H246.876ZM267.852 339.5L263.365 324.773H265.743L268.926 336.048H269.079L272.224 324.773H274.64L277.747 336.01H277.9L281.084 324.773H283.461L278.974 339.5H276.75L273.528 328.186H273.298L270.076 339.5H267.852ZM286.453 339.5V324.773H288.716V339.5H286.453ZM287.603 322.318C287.162 322.318 286.782 322.168 286.462 321.868C286.149 321.567 285.993 321.206 285.993 320.784C285.993 320.362 286.149 320.001 286.462 319.701C286.782 319.4 287.162 319.25 287.603 319.25C288.044 319.25 288.422 319.4 288.735 319.701C289.054 320.001 289.214 320.362 289.214 320.784C289.214 321.206 289.054 321.567 288.735 321.868C288.422 322.168 288.044 322.318 287.603 322.318ZM299.265 324.773V326.69H291.633V324.773H299.265ZM293.857 321.244H296.12V335.281C296.12 335.92 296.213 336.4 296.398 336.719C296.59 337.033 296.833 337.244 297.127 337.352C297.427 337.455 297.744 337.506 298.076 337.506C298.325 337.506 298.53 337.493 298.69 337.467C298.849 337.435 298.977 337.41 299.073 337.391L299.533 339.423C299.38 339.481 299.166 339.538 298.891 339.596C298.616 339.66 298.268 339.692 297.846 339.692C297.207 339.692 296.58 339.554 295.967 339.279C295.359 339.005 294.854 338.586 294.452 338.023C294.055 337.461 293.857 336.751 293.857 335.895V321.244ZM305.248 330.641V339.5H302.985V319.864H305.248V327.074H305.44C305.785 326.313 306.303 325.709 306.993 325.262C307.69 324.808 308.616 324.581 309.773 324.581C310.777 324.581 311.656 324.782 312.41 325.185C313.164 325.581 313.749 326.192 314.165 327.016C314.587 327.835 314.798 328.876 314.798 330.142V339.5H312.535V330.295C312.535 329.126 312.231 328.221 311.624 327.582C311.023 326.936 310.189 326.614 309.121 326.614C308.38 326.614 307.715 326.77 307.127 327.083C306.545 327.397 306.085 327.854 305.746 328.455C305.414 329.055 305.248 329.784 305.248 330.641ZM330.865 339.845C329.932 339.845 329.085 339.669 328.324 339.318C327.563 338.96 326.959 338.445 326.512 337.774C326.064 337.097 325.841 336.278 325.841 335.32C325.841 334.476 326.007 333.792 326.339 333.268C326.672 332.737 327.116 332.322 327.672 332.021C328.228 331.721 328.842 331.497 329.513 331.35C330.19 331.197 330.871 331.075 331.555 330.986C332.45 330.871 333.176 330.784 333.732 330.727C334.294 330.663 334.703 330.558 334.959 330.411C335.221 330.263 335.352 330.008 335.352 329.643V329.567C335.352 328.621 335.093 327.886 334.575 327.362C334.064 326.837 333.287 326.575 332.245 326.575C331.165 326.575 330.318 326.812 329.705 327.285C329.091 327.758 328.66 328.263 328.41 328.8L326.263 328.033C326.646 327.138 327.157 326.441 327.797 325.942C328.442 325.437 329.145 325.086 329.906 324.888C330.673 324.683 331.427 324.581 332.169 324.581C332.642 324.581 333.185 324.638 333.799 324.754C334.419 324.862 335.016 325.089 335.592 325.434C336.173 325.779 336.656 326.3 337.04 326.997C337.423 327.694 337.615 328.627 337.615 329.797V339.5H335.352V337.506H335.237C335.084 337.825 334.828 338.167 334.47 338.532C334.112 338.896 333.636 339.206 333.041 339.462C332.447 339.717 331.721 339.845 330.865 339.845ZM331.21 337.812C332.105 337.812 332.859 337.637 333.473 337.285C334.093 336.934 334.559 336.48 334.873 335.924C335.192 335.368 335.352 334.783 335.352 334.169V332.098C335.256 332.213 335.045 332.319 334.719 332.414C334.4 332.504 334.029 332.584 333.607 332.654C333.191 332.718 332.786 332.776 332.389 332.827C331.999 332.871 331.683 332.91 331.44 332.942C330.852 333.018 330.302 333.143 329.791 333.316C329.286 333.482 328.877 333.734 328.564 334.073C328.257 334.406 328.103 334.859 328.103 335.435C328.103 336.221 328.394 336.815 328.976 337.218C329.564 337.614 330.309 337.812 331.21 337.812ZM355.743 324.773V326.69H348.111V324.773H355.743ZM350.336 321.244H352.599V335.281C352.599 335.92 352.691 336.4 352.877 336.719C353.068 337.033 353.311 337.244 353.605 337.352C353.906 337.455 354.222 337.506 354.555 337.506C354.804 337.506 355.008 337.493 355.168 337.467C355.328 337.435 355.456 337.41 355.552 337.391L356.012 339.423C355.858 339.481 355.644 339.538 355.369 339.596C355.095 339.66 354.746 339.692 354.324 339.692C353.685 339.692 353.059 339.554 352.445 339.279C351.838 339.005 351.333 338.586 350.93 338.023C350.534 337.461 350.336 336.751 350.336 335.895V321.244ZM365.164 339.807C363.745 339.807 362.521 339.494 361.491 338.867C360.469 338.234 359.679 337.352 359.123 336.221C358.574 335.083 358.299 333.76 358.299 332.251C358.299 330.743 358.574 329.413 359.123 328.263C359.679 327.106 360.453 326.205 361.444 325.559C362.441 324.907 363.604 324.581 364.934 324.581C365.701 324.581 366.458 324.709 367.206 324.964C367.954 325.22 368.635 325.636 369.248 326.211C369.862 326.78 370.351 327.534 370.715 328.474C371.08 329.413 371.262 330.57 371.262 331.945V332.903H359.909V330.947H368.961C368.961 330.116 368.794 329.375 368.462 328.723C368.136 328.071 367.669 327.556 367.062 327.179C366.461 326.802 365.752 326.614 364.934 326.614C364.032 326.614 363.252 326.837 362.594 327.285C361.942 327.726 361.44 328.301 361.089 329.011C360.737 329.72 360.561 330.481 360.561 331.293V332.597C360.561 333.709 360.753 334.652 361.137 335.425C361.527 336.192 362.067 336.777 362.757 337.18C363.447 337.576 364.25 337.774 365.164 337.774C365.758 337.774 366.295 337.691 366.775 337.525C367.26 337.352 367.679 337.097 368.031 336.758C368.382 336.413 368.654 335.984 368.846 335.473L371.032 336.087C370.801 336.828 370.415 337.48 369.871 338.043C369.328 338.599 368.657 339.033 367.858 339.347C367.059 339.653 366.161 339.807 365.164 339.807ZM379.038 339.845C378.104 339.845 377.257 339.669 376.497 339.318C375.736 338.96 375.132 338.445 374.685 337.774C374.237 337.097 374.013 336.278 374.013 335.32C374.013 334.476 374.18 333.792 374.512 333.268C374.844 332.737 375.289 332.322 375.845 332.021C376.401 331.721 377.015 331.497 377.686 331.35C378.363 331.197 379.044 331.075 379.728 330.986C380.623 330.871 381.348 330.784 381.904 330.727C382.467 330.663 382.876 330.558 383.132 330.411C383.394 330.263 383.525 330.008 383.525 329.643V329.567C383.525 328.621 383.266 327.886 382.748 327.362C382.237 326.837 381.46 326.575 380.418 326.575C379.338 326.575 378.491 326.812 377.877 327.285C377.264 327.758 376.832 328.263 376.583 328.8L374.435 328.033C374.819 327.138 375.33 326.441 375.969 325.942C376.615 325.437 377.318 325.086 378.079 324.888C378.846 324.683 379.6 324.581 380.342 324.581C380.815 324.581 381.358 324.638 381.972 324.754C382.592 324.862 383.189 325.089 383.765 325.434C384.346 325.779 384.829 326.3 385.212 326.997C385.596 327.694 385.788 328.627 385.788 329.797V339.5H383.525V337.506H383.41C383.256 337.825 383.001 338.167 382.643 338.532C382.285 338.896 381.809 339.206 381.214 339.462C380.62 339.717 379.894 339.845 379.038 339.845ZM379.383 337.812C380.278 337.812 381.032 337.637 381.646 337.285C382.266 336.934 382.732 336.48 383.045 335.924C383.365 335.368 383.525 334.783 383.525 334.169V332.098C383.429 332.213 383.218 332.319 382.892 332.414C382.572 332.504 382.202 332.584 381.78 332.654C381.364 332.718 380.958 332.776 380.562 332.827C380.172 332.871 379.856 332.91 379.613 332.942C379.025 333.018 378.475 333.143 377.964 333.316C377.459 333.482 377.05 333.734 376.737 334.073C376.43 334.406 376.276 334.859 376.276 335.435C376.276 336.221 376.567 336.815 377.149 337.218C377.737 337.614 378.482 337.812 379.383 337.812ZM389.918 339.5V324.773H392.104V327.074H392.296C392.602 326.288 393.098 325.677 393.782 325.243C394.466 324.801 395.287 324.581 396.246 324.581C397.217 324.581 398.026 324.801 398.672 325.243C399.324 325.677 399.832 326.288 400.196 327.074H400.35C400.727 326.313 401.292 325.709 402.047 325.262C402.801 324.808 403.705 324.581 404.76 324.581C406.077 324.581 407.154 324.993 407.991 325.818C408.829 326.636 409.247 327.911 409.247 329.643V339.5H406.984V329.643C406.984 328.557 406.687 327.78 406.093 327.314C405.498 326.847 404.798 326.614 403.993 326.614C402.957 326.614 402.155 326.927 401.586 327.553C401.017 328.173 400.733 328.96 400.733 329.912V339.5H398.432V329.413C398.432 328.576 398.16 327.902 397.617 327.39C397.074 326.873 396.374 326.614 395.517 326.614C394.929 326.614 394.379 326.77 393.868 327.083C393.363 327.397 392.954 327.831 392.641 328.387C392.334 328.937 392.18 329.573 392.18 330.295V339.5H389.918ZM416.376 319.864L416.184 333.977H413.96L413.768 319.864H416.376ZM415.072 339.653C414.599 339.653 414.193 339.484 413.854 339.145C413.516 338.806 413.346 338.401 413.346 337.928C413.346 337.455 413.516 337.049 413.854 336.71C414.193 336.371 414.599 336.202 415.072 336.202C415.545 336.202 415.951 336.371 416.29 336.71C416.628 337.049 416.798 337.455 416.798 337.928C416.798 338.241 416.718 338.528 416.558 338.79C416.405 339.053 416.197 339.263 415.935 339.423C415.679 339.577 415.392 339.653 415.072 339.653Z" fill="white"/>
<path d="M138 361.5H48" stroke="#29ABE2" stroke-width="3" stroke-linecap="round"/>
<path d="M86.7397 154H74.4242V167.896H86.7397V154Z" fill="white"/>
<path d="M74.4243 179.197H86.7397V198.795C86.796 203.51 85.4275 208.136 82.8083 212.084C80.222 215.919 75.2295 220.483 65.9929 220.483C55.9321 220.483 50.0681 215.817 46.9039 213.26L54.6721 203.862C57.7605 206.335 60.7351 208.37 66.0403 208.37C70.057 208.37 71.658 206.764 72.5959 205.365C73.8709 203.42 74.5304 201.146 74.4906 198.832L74.4243 179.197Z" fill="white"/>
<path d="M68.1434 170.425H55.8279V182.557H68.1434V170.425Z" fill="#29ABE2"/>
<path d="M93.1911 214.79C93.1911 217.375 91.8554 218.766 89.9891 218.766C88.1228 218.766 86.9008 217.114 86.9008 214.921C86.9008 212.728 88.1607 210.992 90.0933 210.992C92.0259 210.992 93.1911 212.7 93.1911 214.79ZM88.3312 214.893C88.3312 216.452 88.966 217.599 90.0554 217.599C91.1449 217.599 91.7606 216.386 91.7606 214.8C91.7606 213.409 91.1922 212.103 90.0554 212.103C88.9186 212.103 88.3312 213.363 88.3312 214.893Z" fill="white"/>
<path d="M95.6353 211.104V218.644H94.2711V211.104H95.6353Z" fill="white"/>
<path d="M97.1131 218.644V211.104H98.6289L100.258 214.212C100.678 215.024 101.051 215.859 101.376 216.713C101.291 215.779 101.253 214.706 101.253 213.512V211.104H102.504V218.644H101.092L99.4436 215.471C99.0072 214.638 98.6182 213.781 98.2784 212.905C98.2784 213.838 98.3447 214.893 98.3447 216.19V218.635L97.1131 218.644Z" fill="white"/>
</svg>
