<svg width="30" height="31" viewBox="0 0 30 31" fill="none" xmlns="http://www.w3.org/2000/svg">
<mask id="mask0_69323_5260" style="mask-type:alpha" maskUnits="userSpaceOnUse" x="0" y="0" width="30" height="31">
<rect y="0.96582" width="30" height="30" fill="#D9D9D9"/>
</mask>
<g mask="url(#mask0_69323_5260)">
<path d="M4.62652 28.1682C3.95579 28.1682 3.38161 27.9294 2.90396 27.4517C2.42632 26.9741 2.1875 26.3999 2.1875 25.7292V8.65599C2.1875 7.98526 2.42632 7.41107 2.90396 6.93343C3.38161 6.45578 3.95579 6.21696 4.62652 6.21696H15.5107L13.0716 8.65599H4.62652V25.7292H21.6997V17.2535L24.1387 14.8145V25.7292C24.1387 26.3999 23.8999 26.9741 23.4223 27.4517C22.9446 27.9294 22.3704 28.1682 21.6997 28.1682H4.62652ZM18.2546 6.91818L19.9924 8.6255L11.9436 16.6743V18.4121H13.6509L21.7302 10.3328L23.468 12.0401L15.3887 20.1194C15.1651 20.343 14.906 20.5208 14.6113 20.6529C14.3166 20.7851 14.0066 20.8511 13.6814 20.8511H10.7241C10.3786 20.8511 10.0889 20.7342 9.85518 20.5005C9.62144 20.2668 9.50457 19.9771 9.50457 19.6316V16.6743C9.50457 16.3491 9.56555 16.0391 9.6875 15.7444C9.80945 15.4497 9.98222 15.1905 10.2058 14.967L18.2546 6.91818ZM23.468 12.0401L18.2546 6.91818L21.3034 3.8694C21.7912 3.3816 22.3755 3.1377 23.0564 3.1377C23.7373 3.1377 24.3115 3.3816 24.779 3.8694L26.4863 5.60721C26.9538 6.07469 27.1875 6.64379 27.1875 7.31452C27.1875 7.98526 26.9538 8.55436 26.4863 9.02184L23.468 12.0401Z" fill="white"/>
</g>
</svg>
