<svg width="24" height="25" viewBox="0 0 24 25" fill="none" xmlns="http://www.w3.org/2000/svg">
<mask id="mask0_138796_3204" style="mask-type:alpha" maskUnits="userSpaceOnUse" x="0" y="0" width="24" height="25">
<rect y="0.5" width="24" height="24" fill="#D9D9D9"/>
</mask>
<g mask="url(#mask0_138796_3204)">
<path d="M19.95 21.5C17.8667 21.5 15.8083 21.0458 13.775 20.1375C11.7417 19.2292 9.89167 17.9417 8.225 16.275C6.55833 14.6083 5.27083 12.7583 4.3625 10.725C3.45417 8.69167 3 6.63333 3 4.55C3 4.25 3.1 4 3.3 3.8C3.5 3.6 3.75 3.5 4.05 3.5H8.1C8.33333 3.5 8.54167 3.57917 8.725 3.7375C8.90833 3.89583 9.01667 4.08333 9.05 4.3L9.7 7.8C9.73333 8.06667 9.725 8.29167 9.675 8.475C9.625 8.65833 9.53333 8.81667 9.4 8.95L6.975 11.4C7.30833 12.0167 7.70417 12.6125 8.1625 13.1875C8.62083 13.7625 9.125 14.3167 9.675 14.85C10.1917 15.3667 10.7333 15.8458 11.3 16.2875C11.8667 16.7292 12.4667 17.1333 13.1 17.5L15.45 15.15C15.6 15 15.7958 14.8875 16.0375 14.8125C16.2792 14.7375 16.5167 14.7167 16.75 14.75L20.2 15.45C20.4333 15.5167 20.625 15.6375 20.775 15.8125C20.925 15.9875 21 16.1833 21 16.4V20.45C21 20.75 20.9 21 20.7 21.2C20.5 21.4 20.25 21.5 19.95 21.5ZM6.025 9.5L7.675 7.85L7.25 5.5H5.025C5.10833 6.18333 5.225 6.85833 5.375 7.525C5.525 8.19167 5.74167 8.85 6.025 9.5ZM14.975 18.45C15.625 18.7333 16.2875 18.9583 16.9625 19.125C17.6375 19.2917 18.3167 19.4 19 19.45V17.25L16.65 16.775L14.975 18.45Z" fill="#A8A8A8"/>
</g>
</svg>
