<svg width="16" height="12" viewBox="0 0 16 12" fill="none" xmlns="http://www.w3.org/2000/svg">
<path d="M5.79923 9.15L14.2742 0.675C14.4742 0.475 14.7117 0.375 14.9867 0.375C15.2617 0.375 15.4992 0.475 15.6992 0.675C15.8992 0.875 15.9992 1.1125 15.9992 1.3875C15.9992 1.6625 15.8992 1.9 15.6992 2.1L6.49923 11.3C6.29923 11.5 6.0659 11.6 5.79923 11.6C5.53256 11.6 5.29923 11.5 5.09923 11.3L0.79923 7C0.59923 6.8 0.503397 6.5625 0.51173 6.2875C0.520064 6.0125 0.62423 5.775 0.82423 5.575C1.02423 5.375 1.26173 5.275 1.53673 5.275C1.81173 5.275 2.04923 5.375 2.24923 5.575L5.79923 9.15Z" fill="white"/>
</svg>
