<svg width="32" height="32" viewBox="0 0 32 32" fill="none" xmlns="http://www.w3.org/2000/svg">
<mask id="mask0_71720_5528" style="mask-type:alpha" maskUnits="userSpaceOnUse" x="4" y="4" width="24" height="24">
<rect x="4" y="4" width="24" height="24" fill="#D9D9D9"/>
</mask>
<g mask="url(#mask0_71720_5528)">
<path d="M16 17.4L11.1 22.3C10.9167 22.4834 10.6834 22.575 10.4 22.575C10.1167 22.575 9.88338 22.4834 9.70005 22.3C9.51672 22.1167 9.42505 21.8834 9.42505 21.6C9.42505 21.3167 9.51672 21.0834 9.70005 20.9L14.6 16L9.70005 11.1C9.51672 10.9167 9.42505 10.6834 9.42505 10.4C9.42505 10.1167 9.51672 9.88338 9.70005 9.70005C9.88338 9.51672 10.1167 9.42505 10.4 9.42505C10.6834 9.42505 10.9167 9.51672 11.1 9.70005L16 14.6L20.9 9.70005C21.0834 9.51672 21.3167 9.42505 21.6 9.42505C21.8834 9.42505 22.1167 9.51672 22.3 9.70005C22.4834 9.88338 22.575 10.1167 22.575 10.4C22.575 10.6834 22.4834 10.9167 22.3 11.1L17.4 16L22.3 20.9C22.4834 21.0834 22.575 21.3167 22.575 21.6C22.575 21.8834 22.4834 22.1167 22.3 22.3C22.1167 22.4834 21.8834 22.575 21.6 22.575C21.3167 22.575 21.0834 22.4834 20.9 22.3L16 17.4Z" fill="#2A3647"/>
</g>
</svg>
