<svg width="134" height="134" viewBox="0 0 134 134" fill="none" xmlns="http://www.w3.org/2000/svg">
<g filter="url(#filter0_d_576_4834)">
<rect x="7" y="7" width="120" height="120" rx="60" fill="white"/>
<rect x="5.5" y="5.5" width="123" height="123" rx="61.5" stroke="white" stroke-width="3"/>
<circle cx="67" cy="67" r="60" fill="#D1D1D1"/>
<mask id="mask0_576_4834" style="mask-type:alpha" maskUnits="userSpaceOnUse" x="35" y="35" width="64" height="64">
<rect x="35" y="35" width="64" height="64" fill="#D9D9D9"/>
</mask>
<g mask="url(#mask0_576_4834)">
<path d="M67.0001 67.0001C64.0667 67.0001 61.5556 65.9556 59.4667 63.8667C57.3779 61.7779 56.3334 59.2667 56.3334 56.3334C56.3334 53.4001 57.3779 50.889 59.4667 48.8001C61.5556 46.7112 64.0667 45.6667 67.0001 45.6667C69.9334 45.6667 72.4445 46.7112 74.5334 48.8001C76.6223 50.889 77.6667 53.4001 77.6667 56.3334C77.6667 59.2667 76.6223 61.7779 74.5334 63.8667C72.4445 65.9556 69.9334 67.0001 67.0001 67.0001ZM83.0001 88.3334H51.0001C49.5334 88.3334 48.2779 87.8112 47.2334 86.7668C46.189 85.7223 45.6667 84.4668 45.6667 83.0001V80.8667C45.6667 79.3556 46.0556 77.9667 46.8334 76.7001C47.6112 75.4334 48.6445 74.4667 49.9334 73.8001C52.689 72.4223 55.489 71.389 58.3334 70.7001C61.1779 70.0112 64.0667 69.6667 67.0001 69.6667C69.9334 69.6667 72.8223 70.0112 75.6667 70.7001C78.5112 71.389 81.3112 72.4223 84.0667 73.8001C85.3556 74.4667 86.389 75.4334 87.1667 76.7001C87.9445 77.9667 88.3334 79.3556 88.3334 80.8667V83.0001C88.3334 84.4668 87.8112 85.7223 86.7668 86.7668C85.7223 87.8112 84.4668 88.3334 83.0001 88.3334ZM51.0001 83.0001H83.0001V80.8667C83.0001 80.3779 82.8779 79.9334 82.6334 79.5334C82.389 79.1334 82.0667 78.8223 81.6667 78.6001C79.2668 77.4001 76.8445 76.5001 74.4001 75.9001C71.9556 75.3001 69.489 75.0001 67.0001 75.0001C64.5112 75.0001 62.0445 75.3001 59.6001 75.9001C57.1556 76.5001 54.7334 77.4001 52.3334 78.6001C51.9334 78.8223 51.6112 79.1334 51.3667 79.5334C51.1223 79.9334 51.0001 80.3779 51.0001 80.8667V83.0001ZM67.0001 61.6667C68.4667 61.6667 69.7223 61.1445 70.7668 60.1001C71.8112 59.0556 72.3334 57.8001 72.3334 56.3334C72.3334 54.8667 71.8112 53.6112 70.7668 52.5667C69.7223 51.5223 68.4667 51.0001 67.0001 51.0001C65.5334 51.0001 64.2779 51.5223 63.2334 52.5667C62.189 53.6112 61.6667 54.8667 61.6667 56.3334C61.6667 57.8001 62.189 59.0556 63.2334 60.1001C64.2779 61.1445 65.5334 61.6667 67.0001 61.6667Z" fill="white"/>
</g>
</g>
<defs>
<filter id="filter0_d_576_4834" x="0" y="0" width="134" height="134" filterUnits="userSpaceOnUse" color-interpolation-filters="sRGB">
<feFlood flood-opacity="0" result="BackgroundImageFix"/>
<feColorMatrix in="SourceAlpha" type="matrix" values="0 0 0 0 0 0 0 0 0 0 0 0 0 0 0 0 0 0 127 0" result="hardAlpha"/>
<feOffset/>
<feGaussianBlur stdDeviation="2"/>
<feColorMatrix type="matrix" values="0 0 0 0 0 0 0 0 0 0 0 0 0 0 0 0 0 0 0.1 0"/>
<feBlend mode="normal" in2="BackgroundImageFix" result="effect1_dropShadow_576_4834"/>
<feBlend mode="normal" in="SourceGraphic" in2="effect1_dropShadow_576_4834" result="shape"/>
</filter>
</defs>
</svg>
