<svg width="453" height="592" viewBox="0 0 453 592" fill="none" xmlns="http://www.w3.org/2000/svg">
<rect width="453" height="594" fill="#2A3647"/>
<path d="M49.8558 311.5V267.136H79.7493V274.87H59.2354V285.441H78.2113V293.174H59.2354V303.767H79.8359V311.5H49.8558ZM99.2938 312.042C96.7665 312.042 94.4776 311.392 92.4269 310.092C90.3907 308.778 88.7733 306.85 87.5747 304.308C86.3905 301.752 85.7984 298.618 85.7984 294.907C85.7984 291.094 86.4121 287.925 87.6396 285.397C88.8672 282.856 90.499 280.957 92.5352 279.7C94.5859 278.429 96.8315 277.794 99.2721 277.794C101.135 277.794 102.687 278.112 103.929 278.747C105.186 279.368 106.197 280.148 106.962 281.087C107.742 282.011 108.334 282.921 108.738 283.816H109.02V267.136H118.226V311.5H109.128V306.171H108.738C108.305 307.095 107.691 308.012 106.897 308.922C106.117 309.818 105.099 310.561 103.843 311.153C102.601 311.746 101.084 312.042 99.2938 312.042ZM102.218 304.698C103.706 304.698 104.962 304.294 105.987 303.485C107.027 302.662 107.821 301.514 108.37 300.041C108.933 298.568 109.215 296.842 109.215 294.864C109.215 292.885 108.941 291.167 108.392 289.708C107.843 288.25 107.049 287.123 106.009 286.329C104.969 285.535 103.706 285.137 102.218 285.137C100.702 285.137 99.4237 285.549 98.384 286.372C97.3442 287.195 96.5571 288.336 96.0228 289.795C95.4885 291.253 95.2213 292.943 95.2213 294.864C95.2213 296.799 95.4885 298.51 96.0228 299.998C96.5716 301.471 97.3586 302.626 98.384 303.463C99.4237 304.287 100.702 304.698 102.218 304.698ZM125.813 311.5V278.227H135.041V311.5H125.813ZM130.449 273.938C129.077 273.938 127.9 273.483 126.918 272.574C125.951 271.649 125.467 270.545 125.467 269.259C125.467 267.988 125.951 266.898 126.918 265.988C127.9 265.064 129.077 264.602 130.449 264.602C131.821 264.602 132.991 265.064 133.958 265.988C134.94 266.898 135.431 267.988 135.431 269.259C135.431 270.545 134.94 271.649 133.958 272.574C132.991 273.483 131.821 273.938 130.449 273.938ZM160.131 278.227V285.159H140.094V278.227H160.131ZM144.643 270.256H153.871V301.276C153.871 302.128 154.001 302.792 154.261 303.268C154.521 303.731 154.882 304.056 155.344 304.243C155.821 304.431 156.369 304.525 156.99 304.525C157.424 304.525 157.857 304.489 158.29 304.417C158.723 304.33 159.055 304.265 159.286 304.222L160.738 311.088C160.276 311.233 159.626 311.399 158.788 311.587C157.951 311.789 156.933 311.912 155.734 311.955C153.51 312.042 151.56 311.746 149.885 311.067C148.224 310.388 146.932 309.334 146.008 307.904C145.083 306.474 144.629 304.669 144.643 302.489V270.256ZM195.294 312.15C191.886 312.15 188.954 311.428 186.499 309.984C184.059 308.525 182.181 306.503 180.867 303.918C179.567 301.333 178.918 298.358 178.918 294.994C178.918 291.585 179.575 288.596 180.889 286.026C182.217 283.441 184.102 281.426 186.543 279.982C188.983 278.523 191.886 277.794 195.251 277.794C198.153 277.794 200.695 278.321 202.876 279.375C205.056 280.43 206.782 281.91 208.053 283.816C209.324 285.722 210.024 287.961 210.154 290.531H201.446C201.201 288.871 200.551 287.535 199.496 286.524C198.457 285.498 197.092 284.986 195.402 284.986C193.973 284.986 192.723 285.376 191.655 286.156C190.601 286.921 189.777 288.04 189.185 289.513C188.593 290.986 188.297 292.77 188.297 294.864C188.297 296.987 188.586 298.792 189.164 300.279C189.756 301.767 190.586 302.9 191.655 303.68C192.723 304.46 193.973 304.85 195.402 304.85C196.457 304.85 197.402 304.633 198.24 304.2C199.092 303.767 199.792 303.138 200.341 302.315C200.904 301.478 201.273 300.474 201.446 299.304H210.154C210.01 301.846 209.317 304.084 208.075 306.02C206.847 307.94 205.15 309.442 202.984 310.525C200.818 311.608 198.254 312.15 195.294 312.15ZM231.096 312.15C227.731 312.15 224.821 311.435 222.366 310.005C219.925 308.561 218.041 306.554 216.712 303.983C215.384 301.398 214.719 298.402 214.719 294.994C214.719 291.557 215.384 288.553 216.712 285.982C218.041 283.397 219.925 281.39 222.366 279.96C224.821 278.516 227.731 277.794 231.096 277.794C234.461 277.794 237.363 278.516 239.804 279.96C242.259 281.39 244.151 283.397 245.479 285.982C246.808 288.553 247.472 291.557 247.472 294.994C247.472 298.402 246.808 301.398 245.479 303.983C244.151 306.554 242.259 308.561 239.804 310.005C237.363 311.435 234.461 312.15 231.096 312.15ZM231.139 305.001C232.67 305.001 233.948 304.568 234.973 303.702C235.999 302.821 236.771 301.622 237.291 300.106C237.825 298.589 238.093 296.864 238.093 294.929C238.093 292.993 237.825 291.268 237.291 289.751C236.771 288.235 235.999 287.036 234.973 286.156C233.948 285.275 232.67 284.834 231.139 284.834C229.594 284.834 228.294 285.275 227.24 286.156C226.2 287.036 225.413 288.235 224.879 289.751C224.359 291.268 224.099 292.993 224.099 294.929C224.099 296.864 224.359 298.589 224.879 300.106C225.413 301.622 226.2 302.821 227.24 303.702C228.294 304.568 229.594 305.001 231.139 305.001ZM262.701 292.264V311.5H253.473V278.227H262.267V284.098H262.657C263.394 282.163 264.628 280.632 266.361 279.505C268.094 278.364 270.196 277.794 272.665 277.794C274.976 277.794 276.99 278.299 278.709 279.31C280.427 280.321 281.763 281.765 282.716 283.643C283.669 285.506 284.146 287.73 284.146 290.315V311.5H274.918V291.961C274.932 289.925 274.412 288.336 273.358 287.195C272.304 286.04 270.853 285.462 269.004 285.462C267.762 285.462 266.665 285.73 265.712 286.264C264.773 286.798 264.036 287.578 263.502 288.603C262.982 289.614 262.715 290.835 262.701 292.264ZM309.117 278.227V285.159H289.079V278.227H309.117ZM293.628 270.256H302.856V301.276C302.856 302.128 302.986 302.792 303.246 303.268C303.506 303.731 303.867 304.056 304.329 304.243C304.806 304.431 305.355 304.525 305.976 304.525C306.409 304.525 306.842 304.489 307.275 304.417C307.709 304.33 308.041 304.265 308.272 304.222L309.723 311.088C309.261 311.233 308.611 311.399 307.774 311.587C306.936 311.789 305.918 311.912 304.719 311.955C302.495 312.042 300.546 311.746 298.871 311.067C297.21 310.388 295.917 309.334 294.993 307.904C294.069 306.474 293.614 304.669 293.628 302.489V270.256ZM324.616 312.128C322.493 312.128 320.601 311.76 318.94 311.023C317.28 310.272 315.965 309.168 314.998 307.709C314.045 306.236 313.568 304.402 313.568 302.207C313.568 300.359 313.908 298.806 314.586 297.55C315.265 296.293 316.189 295.282 317.359 294.517C318.529 293.752 319.857 293.174 321.345 292.784C322.847 292.394 324.421 292.12 326.067 291.961C328.002 291.759 329.562 291.571 330.746 291.398C331.93 291.21 332.79 290.936 333.324 290.575C333.858 290.214 334.125 289.679 334.125 288.972V288.842C334.125 287.47 333.692 286.408 332.826 285.657C331.974 284.906 330.761 284.531 329.186 284.531C327.526 284.531 326.204 284.899 325.222 285.636C324.24 286.358 323.59 287.268 323.273 288.365L314.738 287.672C315.171 285.65 316.023 283.903 317.294 282.43C318.565 280.942 320.204 279.801 322.211 279.007C324.233 278.198 326.573 277.794 329.23 277.794C331.078 277.794 332.847 278.011 334.537 278.444C336.241 278.877 337.75 279.549 339.064 280.458C340.393 281.368 341.44 282.538 342.205 283.968C342.971 285.383 343.353 287.08 343.353 289.058V311.5H334.602V306.886H334.342C333.808 307.926 333.093 308.843 332.197 309.637C331.302 310.417 330.226 311.031 328.97 311.478C327.713 311.912 326.262 312.128 324.616 312.128ZM327.259 305.76C328.616 305.76 329.815 305.492 330.854 304.958C331.894 304.409 332.71 303.673 333.302 302.749C333.894 301.824 334.19 300.777 334.19 299.608V296.077C333.902 296.264 333.504 296.438 332.999 296.597C332.508 296.741 331.952 296.878 331.331 297.008C330.71 297.124 330.089 297.232 329.468 297.333C328.847 297.42 328.284 297.499 327.778 297.571C326.695 297.73 325.749 297.983 324.941 298.33C324.132 298.676 323.504 299.145 323.056 299.738C322.608 300.315 322.385 301.037 322.385 301.904C322.385 303.16 322.839 304.121 323.749 304.785C324.674 305.435 325.843 305.76 327.259 305.76ZM365.546 312.15C362.138 312.15 359.206 311.428 356.751 309.984C354.311 308.525 352.433 306.503 351.119 303.918C349.819 301.333 349.17 298.358 349.17 294.994C349.17 291.585 349.827 288.596 351.141 286.026C352.469 283.441 354.354 281.426 356.795 279.982C359.235 278.523 362.138 277.794 365.503 277.794C368.405 277.794 370.947 278.321 373.128 279.375C375.308 280.43 377.034 281.91 378.305 283.816C379.576 285.722 380.276 287.961 380.406 290.531H371.698C371.452 288.871 370.803 287.535 369.748 286.524C368.709 285.498 367.344 284.986 365.654 284.986C364.225 284.986 362.975 285.376 361.907 286.156C360.853 286.921 360.029 288.04 359.437 289.513C358.845 290.986 358.549 292.77 358.549 294.864C358.549 296.987 358.838 298.792 359.416 300.279C360.008 301.767 360.838 302.9 361.907 303.68C362.975 304.46 364.225 304.85 365.654 304.85C366.709 304.85 367.654 304.633 368.492 304.2C369.344 303.767 370.044 303.138 370.593 302.315C371.156 301.478 371.525 300.474 371.698 299.304H380.406C380.262 301.846 379.568 304.084 378.327 306.02C377.099 307.94 375.402 309.442 373.236 310.525C371.07 311.608 368.506 312.15 365.546 312.15ZM404.012 278.227V285.159H383.975V278.227H404.012ZM388.524 270.256H397.752V301.276C397.752 302.128 397.882 302.792 398.142 303.268C398.402 303.731 398.763 304.056 399.225 304.243C399.701 304.431 400.25 304.525 400.871 304.525C401.304 304.525 401.738 304.489 402.171 304.417C402.604 304.33 402.936 304.265 403.167 304.222L404.619 311.088C404.157 311.233 403.507 311.399 402.669 311.587C401.832 311.789 400.813 311.912 399.615 311.955C397.391 312.042 395.441 311.746 393.766 311.067C392.105 310.388 390.813 309.334 389.889 307.904C388.964 306.474 388.509 304.669 388.524 302.489V270.256Z" fill="white"/>
<path d="M136 341.5H46" stroke="#29ABE2" stroke-width="3" stroke-linecap="round"/>
<path d="M84.1394 154H72.1931V167.896H84.1394V154Z" fill="white"/>
<path d="M72.1931 179.197H84.1394V198.795C84.194 203.51 82.8665 208.136 80.3258 212.084C77.8171 215.919 72.9742 220.483 64.0145 220.483C54.2553 220.483 48.5671 215.817 45.4978 213.26L53.0331 203.862C56.0289 206.335 58.9144 208.37 64.0605 208.37C67.9568 208.37 69.5098 206.764 70.4196 205.365C71.6563 203.42 72.2961 201.146 72.2574 198.832L72.1931 179.197Z" fill="white"/>
<path d="M66.1006 170.425H54.1543V182.557H66.1006V170.425Z" fill="#29ABE2"/>
<path d="M90.3973 214.79C90.3973 217.375 89.1016 218.766 87.2913 218.766C85.481 218.766 84.2955 217.114 84.2955 214.921C84.2955 212.728 85.5177 210.992 87.3924 210.992C89.267 210.992 90.3973 212.7 90.3973 214.79ZM85.6831 214.893C85.6831 216.452 86.2988 217.599 87.3556 217.599C88.4124 217.599 89.0097 216.386 89.0097 214.8C89.0097 213.409 88.4583 212.103 87.3556 212.103C86.2529 212.103 85.6831 213.363 85.6831 214.893Z" fill="white"/>
<path d="M92.7682 211.104V218.644H91.4449V211.104H92.7682Z" fill="white"/>
<path d="M94.2018 218.644V211.104H95.6721L97.2527 214.212C97.6596 215.024 98.0216 215.859 98.337 216.713C98.2543 215.779 98.2176 214.706 98.2176 213.512V211.104H99.4306V218.644H98.0613L96.4624 215.471C96.0391 214.638 95.6617 213.781 95.3321 212.905C95.3321 213.838 95.3964 214.893 95.3964 216.19V218.635L94.2018 218.644Z" fill="white"/>
</svg>
