<svg width="42" height="42" viewBox="0 0 42 42" fill="none" xmlns="http://www.w3.org/2000/svg">
<circle cx="21" cy="21" r="20" fill="#9327FF" stroke="white" stroke-width="2"/>
<path d="M14.5339 25H13.426L16.6305 16.2727H17.7214L20.926 25H19.818L17.21 17.6534H17.1419L14.5339 25ZM14.943 21.5909H19.4089V22.5284H14.943V21.5909ZM27.0581 18.4545C27.0069 18.0227 26.7995 17.6875 26.4359 17.4489C26.0723 17.2102 25.6262 17.0909 25.0978 17.0909C24.7115 17.0909 24.3734 17.1534 24.0836 17.2784C23.7967 17.4034 23.5723 17.5753 23.4103 17.794C23.2512 18.0128 23.1717 18.2614 23.1717 18.5398C23.1717 18.7727 23.2271 18.973 23.3379 19.1406C23.4515 19.3054 23.5964 19.4432 23.7725 19.554C23.9487 19.6619 24.1333 19.7514 24.3265 19.8224C24.5197 19.8906 24.6973 19.946 24.8592 19.9886L25.7456 20.2273C25.9728 20.2869 26.2257 20.3693 26.5041 20.4744C26.7853 20.5795 27.0538 20.723 27.3095 20.9048C27.568 21.0838 27.7811 21.3139 27.9487 21.5952C28.1163 21.8764 28.2001 22.2216 28.2001 22.6307C28.2001 23.1023 28.0765 23.5284 27.8294 23.9091C27.585 24.2898 27.2271 24.5923 26.7555 24.8168C26.2868 25.0412 25.7172 25.1534 25.0467 25.1534C24.4217 25.1534 23.8805 25.0526 23.4231 24.8509C22.9686 24.6491 22.6106 24.3679 22.3493 24.0071C22.0907 23.6463 21.9444 23.2273 21.9103 22.75H23.0012C23.0297 23.0795 23.1404 23.3523 23.3336 23.5682C23.5297 23.7812 23.7768 23.9403 24.0751 24.0455C24.3762 24.1477 24.7001 24.1989 25.0467 24.1989C25.4501 24.1989 25.8123 24.1335 26.1333 24.0028C26.4544 23.8693 26.7086 23.6847 26.8961 23.4489C27.0836 23.2102 27.1774 22.9318 27.1774 22.6136C27.1774 22.3239 27.0964 22.0881 26.9345 21.9062C26.7725 21.7244 26.5595 21.5767 26.2953 21.4631C26.0311 21.3494 25.7456 21.25 25.4387 21.1648L24.3649 20.858C23.6831 20.6619 23.1433 20.3821 22.7456 20.0185C22.3478 19.6548 22.149 19.179 22.149 18.5909C22.149 18.1023 22.2811 17.6761 22.5453 17.3125C22.8123 16.946 23.1703 16.6619 23.6191 16.4602C24.0708 16.2557 24.5751 16.1534 25.1319 16.1534C25.6944 16.1534 26.1944 16.2543 26.6319 16.456C27.0694 16.6548 27.416 16.9276 27.6717 17.2741C27.9302 17.6207 28.0666 18.0142 28.0808 18.4545H27.0581Z" fill="white"/>
</svg>
