<svg width="32" height="32" viewBox="0 0 32 32" fill="none" xmlns="http://www.w3.org/2000/svg">
<mask id="mask0_81822_56" style="mask-type:alpha" maskUnits="userSpaceOnUse" x="0" y="0" width="32" height="32">
<rect width="32" height="32" fill="#D9D9D9"/>
</mask>
<g mask="url(#mask0_81822_56)">
<path d="M15.95 22C16.3 22 16.5958 21.8792 16.8375 21.6375C17.0792 21.3958 17.2 21.1 17.2 20.75C17.2 20.4 17.0792 20.1042 16.8375 19.8625C16.5958 19.6208 16.3 19.5 15.95 19.5C15.6 19.5 15.3042 19.6208 15.0625 19.8625C14.8208 20.1042 14.7 20.4 14.7 20.75C14.7 21.1 14.8208 21.3958 15.0625 21.6375C15.3042 21.8792 15.6 22 15.95 22ZM16 26C14.6167 26 13.3167 25.7375 12.1 25.2125C10.8833 24.6875 9.825 23.975 8.925 23.075C8.025 22.175 7.3125 21.1167 6.7875 19.9C6.2625 18.6833 6 17.3833 6 16C6 14.6167 6.2625 13.3167 6.7875 12.1C7.3125 10.8833 8.025 9.825 8.925 8.925C9.825 8.025 10.8833 7.3125 12.1 6.7875C13.3167 6.2625 14.6167 6 16 6C17.3833 6 18.6833 6.2625 19.9 6.7875C21.1167 7.3125 22.175 8.025 23.075 8.925C23.975 9.825 24.6875 10.8833 25.2125 12.1C25.7375 13.3167 26 14.6167 26 16C26 17.3833 25.7375 18.6833 25.2125 19.9C24.6875 21.1167 23.975 22.175 23.075 23.075C22.175 23.975 21.1167 24.6875 19.9 25.2125C18.6833 25.7375 17.3833 26 16 26ZM16 24C18.2333 24 20.125 23.225 21.675 21.675C23.225 20.125 24 18.2333 24 16C24 13.7667 23.225 11.875 21.675 10.325C20.125 8.775 18.2333 8 16 8C13.7667 8 11.875 8.775 10.325 10.325C8.775 11.875 8 13.7667 8 16C8 18.2333 8.775 20.125 10.325 21.675C11.875 23.225 13.7667 24 16 24ZM16.1 11.7C16.5167 11.7 16.8792 11.8333 17.1875 12.1C17.4958 12.3667 17.65 12.7 17.65 13.1C17.65 13.4667 17.5375 13.7917 17.3125 14.075C17.0875 14.3583 16.8333 14.625 16.55 14.875C16.1667 15.2083 15.8292 15.575 15.5375 15.975C15.2458 16.375 15.1 16.825 15.1 17.325C15.1 17.5583 15.1875 17.7542 15.3625 17.9125C15.5375 18.0708 15.7417 18.15 15.975 18.15C16.225 18.15 16.4375 18.0667 16.6125 17.9C16.7875 17.7333 16.9 17.525 16.95 17.275C17.0167 16.925 17.1667 16.6125 17.4 16.3375C17.6333 16.0625 17.8833 15.8 18.15 15.55C18.5333 15.1833 18.8625 14.7833 19.1375 14.35C19.4125 13.9167 19.55 13.4333 19.55 12.9C19.55 12.05 19.2042 11.3542 18.5125 10.8125C17.8208 10.2708 17.0167 10 16.1 10C15.4667 10 14.8625 10.1333 14.2875 10.4C13.7125 10.6667 13.275 11.075 12.975 11.625C12.8583 11.825 12.8208 12.0375 12.8625 12.2625C12.9042 12.4875 13.0167 12.6583 13.2 12.775C13.4333 12.9083 13.675 12.95 13.925 12.9C14.175 12.85 14.3833 12.7083 14.55 12.475C14.7333 12.225 14.9625 12.0333 15.2375 11.9C15.5125 11.7667 15.8 11.7 16.1 11.7Z" fill="#A8A8A8"/>
</g>
</svg>
