<svg width="16" height="12" viewBox="0 0 16 12" fill="none" xmlns="http://www.w3.org/2000/svg">
<path d="M5.69474 9.15L14.1697 0.675C14.3697 0.475 14.6072 0.375 14.8822 0.375C15.1572 0.375 15.3947 0.475 15.5947 0.675C15.7947 0.875 15.8947 1.1125 15.8947 1.3875C15.8947 1.6625 15.7947 1.9 15.5947 2.1L6.39474 11.3C6.19474 11.5 5.96141 11.6 5.69474 11.6C5.42807 11.6 5.19474 11.5 4.99474 11.3L0.694738 7C0.494738 6.8 0.398905 6.5625 0.407238 6.2875C0.415572 6.0125 0.519738 5.775 0.719738 5.575C0.919738 5.375 1.15724 5.275 1.43224 5.275C1.70724 5.275 1.94474 5.375 2.14474 5.575L5.69474 9.15Z" fill="#2A3647"/>
</svg>
