<svg width="21" height="8" viewBox="0 0 21 8" fill="none" xmlns="http://www.w3.org/2000/svg">
<path d="M19.1526 7.72528H1.34443C1.05378 7.72528 0.775033 7.60898 0.569514 7.40197C0.363995 7.19495 0.248535 6.91419 0.248535 6.62143C0.248535 6.32867 0.363995 6.0479 0.569514 5.84089C0.775033 5.63388 1.05378 5.51758 1.34443 5.51758H19.1526C19.4433 5.51758 19.722 5.63388 19.9276 5.84089C20.1331 6.0479 20.2485 6.32867 20.2485 6.62143C20.2485 6.91419 20.1331 7.19495 19.9276 7.40197C19.722 7.60898 19.4433 7.72528 19.1526 7.72528Z" fill="#FFA800"/>
<path d="M19.1526 2.48211H1.34443C1.05378 2.48211 0.775033 2.36581 0.569514 2.1588C0.363995 1.95179 0.248535 1.67102 0.248535 1.37826C0.248535 1.0855 0.363995 0.804736 0.569514 0.597724C0.775033 0.390712 1.05378 0.274414 1.34443 0.274414L19.1526 0.274414C19.4433 0.274414 19.722 0.390712 19.9276 0.597724C20.1331 0.804736 20.2485 1.0855 20.2485 1.37826C20.2485 1.67102 20.1331 1.95179 19.9276 2.1588C19.722 2.36581 19.4433 2.48211 19.1526 2.48211Z" fill="#FFA800"/>
</svg>
