<svg width="56" height="56" viewBox="0 0 56 56" fill="none" xmlns="http://www.w3.org/2000/svg">
<rect width="48" height="48" rx="24" transform="matrix(1 0 0 -1 4 52)" fill="white"/>
<path d="M32.4438 24.5589C32.3107 24.0963 32.1238 23.6876 31.883 23.3327C31.6422 22.9715 31.3475 22.6673 30.999 22.4202C30.6567 22.1667 30.2638 21.9734 29.8202 21.8403C29.383 21.7072 28.8982 21.6407 28.3659 21.6407C27.3709 21.6407 26.4964 21.8878 25.7423 22.3821C24.9945 22.8764 24.4115 23.5957 23.9933 24.5399C23.575 25.4778 23.3659 26.6248 23.3659 27.981C23.3659 29.3371 23.5718 30.4905 23.9837 31.4411C24.3957 32.3916 24.9787 33.1172 25.7328 33.6179C26.4869 34.1122 27.3773 34.3593 28.4039 34.3593C29.3355 34.3593 30.1308 34.1945 30.7898 33.865C31.4552 33.5292 31.9622 33.057 32.3107 32.4487C32.6656 31.8403 32.8431 31.121 32.8431 30.2909L33.6796 30.4144H28.6606V27.3156H36.8069V29.7681C36.8069 31.4791 36.4457 32.9493 35.7233 34.1787C35.0009 35.4018 34.0059 36.346 32.7385 37.0114C31.4711 37.6705 30.0199 38 28.3849 38C26.5598 38 24.9565 37.5976 23.575 36.7928C22.1935 35.9816 21.1162 34.8314 20.3431 33.3422C19.5763 31.8466 19.1929 30.0722 19.1929 28.019C19.1929 26.4411 19.421 25.0342 19.8773 23.7985C20.3399 22.5564 20.9863 21.5044 21.8164 20.6426C22.6466 19.7807 23.613 19.1248 24.7157 18.6749C25.8183 18.225 27.0129 18 28.2993 18C29.402 18 30.4286 18.1616 31.3792 18.4848C32.3298 18.8016 33.1726 19.2516 33.9077 19.8346C34.6491 20.4176 35.2543 21.1115 35.7233 21.9163C36.1922 22.7148 36.4932 23.5957 36.6263 24.5589H32.4438Z" fill="#29ABE2"/>
<circle cx="28" cy="28" r="26.5" stroke="#2A3647" stroke-width="3"/>
</svg>
