<svg width="25" height="24" viewBox="0 0 25 24" fill="none" xmlns="http://www.w3.org/2000/svg">
<mask id="mask0_75601_14773" style="mask-type:alpha" maskUnits="userSpaceOnUse" x="0" y="0" width="25" height="24">
<rect x="0.144531" width="24" height="24" fill="#D9D9D9"/>
</mask>
<g mask="url(#mask0_75601_14773)">
<path d="M11.1445 13H6.14453C5.8612 13 5.6237 12.9042 5.43203 12.7125C5.24036 12.5208 5.14453 12.2833 5.14453 12C5.14453 11.7167 5.24036 11.4792 5.43203 11.2875C5.6237 11.0958 5.8612 11 6.14453 11H11.1445V6C11.1445 5.71667 11.2404 5.47917 11.432 5.2875C11.6237 5.09583 11.8612 5 12.1445 5C12.4279 5 12.6654 5.09583 12.857 5.2875C13.0487 5.47917 13.1445 5.71667 13.1445 6V11H18.1445C18.4279 11 18.6654 11.0958 18.857 11.2875C19.0487 11.4792 19.1445 11.7167 19.1445 12C19.1445 12.2833 19.0487 12.5208 18.857 12.7125C18.6654 12.9042 18.4279 13 18.1445 13H13.1445V18C13.1445 18.2833 13.0487 18.5208 12.857 18.7125C12.6654 18.9042 12.4279 19 12.1445 19C11.8612 19 11.6237 18.9042 11.432 18.7125C11.2404 18.5208 11.1445 18.2833 11.1445 18V13Z" fill="#2A3647"/>
</g>
</svg>
