<svg width="396" height="351" viewBox="0 0 396 351" fill="none" xmlns="http://www.w3.org/2000/svg">
<rect width="396" height="351" fill="#2A3647"/>
<path d="M26.9709 186.5V152.318H50.0036V158.277H34.1978V166.422H48.8185V172.38H34.1978V180.542H50.0703V186.5H26.9709ZM65.0624 186.917C63.1152 186.917 61.3516 186.417 59.7716 185.415C58.2027 184.403 56.9565 182.917 56.0329 180.959C55.1205 178.989 54.6643 176.575 54.6643 173.715C54.6643 170.778 55.1372 168.335 56.083 166.388C57.0288 164.43 58.2861 162.967 59.855 161.999C61.435 161.019 63.1653 160.53 65.0457 160.53C66.4811 160.53 67.6772 160.775 68.6341 161.264C69.6022 161.743 70.3811 162.344 70.9708 163.067C71.5716 163.779 72.0278 164.48 72.3394 165.17H72.5564V152.318H79.6498V186.5H72.6398V182.394H72.3394C72.0056 183.106 71.5327 183.813 70.9207 184.514C70.3199 185.204 69.5354 185.777 68.5674 186.233C67.6105 186.689 66.4421 186.917 65.0624 186.917ZM67.3156 181.259C68.4617 181.259 69.4297 180.948 70.2197 180.325C71.0209 179.69 71.6328 178.806 72.0557 177.671C72.4896 176.536 72.7066 175.206 72.7066 173.682C72.7066 172.157 72.4952 170.833 72.0724 169.71C71.6495 168.586 71.0376 167.718 70.2364 167.106C69.4353 166.494 68.4617 166.188 67.3156 166.188C66.1473 166.188 65.1626 166.505 64.3614 167.139C63.5603 167.773 62.9539 168.652 62.5422 169.776C62.1305 170.9 61.9246 172.202 61.9246 173.682C61.9246 175.173 62.1305 176.491 62.5422 177.637C62.965 178.772 63.5714 179.663 64.3614 180.308C65.1626 180.942 66.1473 181.259 67.3156 181.259ZM85.4956 186.5V160.864H92.6056V186.5H85.4956ZM89.0673 157.559C88.0102 157.559 87.1034 157.208 86.3468 156.507C85.6013 155.795 85.2285 154.944 85.2285 153.954C85.2285 152.975 85.6013 152.135 86.3468 151.434C87.1034 150.721 88.0102 150.365 89.0673 150.365C90.1243 150.365 91.0256 150.721 91.7711 151.434C92.5278 152.135 92.9061 152.975 92.9061 153.954C92.9061 154.944 92.5278 155.795 91.7711 156.507C91.0256 157.208 90.1243 157.559 89.0673 157.559ZM111.937 160.864V166.205H96.4987V160.864H111.937ZM100.004 154.722H107.114V178.622C107.114 179.279 107.214 179.79 107.414 180.158C107.614 180.514 107.893 180.764 108.249 180.909C108.616 181.053 109.039 181.126 109.517 181.126C109.851 181.126 110.185 181.098 110.519 181.042C110.852 180.975 111.108 180.925 111.286 180.892L112.405 186.183C112.049 186.294 111.548 186.422 110.902 186.567C110.257 186.723 109.473 186.817 108.549 186.85C106.836 186.917 105.333 186.689 104.043 186.166C102.763 185.643 101.767 184.831 101.055 183.729C100.343 182.628 99.9925 181.237 100.004 179.557V154.722ZM139.03 187.001C136.404 187.001 134.145 186.444 132.254 185.332C130.373 184.208 128.927 182.65 127.914 180.658C126.913 178.667 126.412 176.375 126.412 173.782C126.412 171.156 126.918 168.853 127.931 166.872C128.954 164.88 130.406 163.328 132.287 162.216C134.167 161.092 136.404 160.53 138.996 160.53C141.233 160.53 143.191 160.936 144.871 161.748C146.552 162.56 147.881 163.701 148.86 165.17C149.84 166.638 150.379 168.363 150.479 170.344H143.77C143.581 169.064 143.08 168.035 142.268 167.256C141.467 166.466 140.415 166.071 139.113 166.071C138.012 166.071 137.049 166.371 136.226 166.972C135.414 167.562 134.779 168.424 134.323 169.559C133.867 170.694 133.639 172.068 133.639 173.682C133.639 175.317 133.861 176.708 134.306 177.854C134.763 179 135.402 179.874 136.226 180.475C137.049 181.076 138.012 181.376 139.113 181.376C139.926 181.376 140.654 181.209 141.3 180.875C141.956 180.542 142.496 180.058 142.919 179.423C143.353 178.778 143.636 178.005 143.77 177.103H150.479C150.368 179.062 149.834 180.786 148.877 182.277C147.931 183.757 146.624 184.914 144.955 185.749C143.286 186.583 141.311 187.001 139.03 187.001ZM166.615 187.001C164.022 187.001 161.78 186.45 159.889 185.348C158.008 184.236 156.556 182.689 155.532 180.708C154.509 178.717 153.997 176.408 153.997 173.782C153.997 171.134 154.509 168.819 155.532 166.839C156.556 164.847 158.008 163.3 159.889 162.199C161.78 161.086 164.022 160.53 166.615 160.53C169.207 160.53 171.444 161.086 173.324 162.199C175.216 163.3 176.674 164.847 177.697 166.839C178.721 168.819 179.233 171.134 179.233 173.782C179.233 176.408 178.721 178.717 177.697 180.708C176.674 182.689 175.216 184.236 173.324 185.348C171.444 186.45 169.207 187.001 166.615 187.001ZM166.648 181.493C167.828 181.493 168.812 181.159 169.602 180.491C170.392 179.813 170.988 178.889 171.388 177.721C171.8 176.553 172.006 175.223 172.006 173.732C172.006 172.241 171.8 170.911 171.388 169.743C170.988 168.575 170.392 167.651 169.602 166.972C168.812 166.294 167.828 165.954 166.648 165.954C165.458 165.954 164.456 166.294 163.644 166.972C162.843 167.651 162.236 168.575 161.825 169.743C161.424 170.911 161.224 172.241 161.224 173.732C161.224 175.223 161.424 176.553 161.825 177.721C162.236 178.889 162.843 179.813 163.644 180.491C164.456 181.159 165.458 181.493 166.648 181.493ZM190.966 171.679V186.5H183.856V160.864H190.632V165.387H190.933C191.5 163.896 192.451 162.716 193.787 161.848C195.122 160.969 196.741 160.53 198.644 160.53C200.424 160.53 201.976 160.919 203.3 161.698C204.624 162.477 205.653 163.59 206.388 165.036C207.122 166.472 207.489 168.185 207.489 170.177V186.5H200.379V171.445C200.39 169.876 199.99 168.652 199.178 167.773C198.365 166.883 197.247 166.438 195.823 166.438C194.866 166.438 194.02 166.644 193.286 167.056C192.563 167.467 191.995 168.068 191.584 168.858C191.183 169.637 190.977 170.577 190.966 171.679ZM226.729 160.864V166.205H211.291V160.864H226.729ZM214.796 154.722H221.906V178.622C221.906 179.279 222.006 179.79 222.206 180.158C222.406 180.514 222.685 180.764 223.041 180.909C223.408 181.053 223.831 181.126 224.309 181.126C224.643 181.126 224.977 181.098 225.311 181.042C225.644 180.975 225.9 180.925 226.078 180.892L227.197 186.183C226.84 186.294 226.34 186.422 225.694 186.567C225.049 186.723 224.265 186.817 223.341 186.85C221.628 186.917 220.125 186.689 218.835 186.166C217.555 185.643 216.559 184.831 215.847 183.729C215.135 182.628 214.785 181.237 214.796 179.557V154.722ZM238.671 186.984C237.036 186.984 235.578 186.7 234.298 186.133C233.019 185.554 232.006 184.703 231.261 183.579C230.526 182.444 230.159 181.031 230.159 179.34C230.159 177.916 230.421 176.719 230.944 175.751C231.467 174.783 232.179 174.004 233.08 173.415C233.981 172.825 235.005 172.38 236.151 172.08C237.308 171.779 238.521 171.568 239.789 171.445C241.28 171.29 242.482 171.145 243.395 171.011C244.307 170.867 244.969 170.655 245.381 170.377C245.792 170.099 245.998 169.687 245.998 169.142V169.042C245.998 167.985 245.664 167.167 244.997 166.588C244.34 166.01 243.406 165.721 242.193 165.721C240.913 165.721 239.895 166.004 239.138 166.572C238.382 167.128 237.881 167.829 237.636 168.675L231.06 168.141C231.394 166.583 232.051 165.237 233.03 164.102C234.009 162.955 235.272 162.076 236.819 161.464C238.376 160.841 240.179 160.53 242.226 160.53C243.65 160.53 245.013 160.697 246.315 161.031C247.628 161.364 248.791 161.882 249.804 162.583C250.827 163.284 251.634 164.185 252.224 165.287C252.813 166.377 253.108 167.684 253.108 169.209V186.5H246.365V182.945H246.165C245.753 183.746 245.203 184.453 244.513 185.065C243.823 185.665 242.994 186.138 242.026 186.483C241.058 186.817 239.94 186.984 238.671 186.984ZM240.707 182.077C241.753 182.077 242.677 181.871 243.478 181.46C244.279 181.037 244.908 180.469 245.364 179.757C245.82 179.045 246.048 178.238 246.048 177.337V174.616C245.826 174.761 245.52 174.895 245.13 175.017C244.752 175.128 244.324 175.234 243.845 175.334C243.367 175.423 242.888 175.507 242.41 175.585C241.931 175.651 241.497 175.712 241.108 175.768C240.273 175.891 239.545 176.085 238.922 176.352C238.298 176.619 237.814 176.981 237.469 177.437C237.125 177.882 236.952 178.439 236.952 179.106C236.952 180.074 237.303 180.814 238.004 181.326C238.716 181.827 239.617 182.077 240.707 182.077ZM270.208 187.001C267.582 187.001 265.323 186.444 263.431 185.332C261.551 184.208 260.104 182.65 259.092 180.658C258.09 178.667 257.59 176.375 257.59 173.782C257.59 171.156 258.096 168.853 259.108 166.872C260.132 164.88 261.584 163.328 263.465 162.216C265.345 161.092 267.582 160.53 270.174 160.53C272.411 160.53 274.369 160.936 276.049 161.748C277.729 162.56 279.059 163.701 280.038 165.17C281.017 166.638 281.557 168.363 281.657 170.344H274.948C274.758 169.064 274.258 168.035 273.445 167.256C272.644 166.466 271.593 166.071 270.291 166.071C269.189 166.071 268.227 166.371 267.404 166.972C266.591 167.562 265.957 168.424 265.501 169.559C265.045 170.694 264.817 172.068 264.817 173.682C264.817 175.317 265.039 176.708 265.484 177.854C265.94 179 266.58 179.874 267.404 180.475C268.227 181.076 269.189 181.376 270.291 181.376C271.103 181.376 271.832 181.209 272.477 180.875C273.134 180.542 273.674 180.058 274.096 179.423C274.53 178.778 274.814 178.005 274.948 177.103H281.657C281.546 179.062 281.012 180.786 280.055 182.277C279.109 183.757 277.802 184.914 276.133 185.749C274.464 186.583 272.489 187.001 270.208 187.001ZM299.845 160.864V166.205H284.407V160.864H299.845ZM287.912 154.722H295.022V178.622C295.022 179.279 295.122 179.79 295.322 180.158C295.523 180.514 295.801 180.764 296.157 180.909C296.524 181.053 296.947 181.126 297.425 181.126C297.759 181.126 298.093 181.098 298.427 181.042C298.761 180.975 299.016 180.925 299.195 180.892L300.313 186.183C299.957 186.294 299.456 186.422 298.811 186.567C298.165 186.723 297.381 186.817 296.457 186.85C294.744 186.917 293.242 186.689 291.951 186.166C290.671 185.643 289.675 184.831 288.963 183.729C288.251 182.628 287.901 181.237 287.912 179.557V154.722Z" fill="white"/>
<path d="M114 209.5H24" stroke="#29ABE2" stroke-width="3" stroke-linecap="round"/>
</svg>
