<svg width="25" height="25" viewBox="0 0 25 25" fill="none" xmlns="http://www.w3.org/2000/svg">
<mask id="mask0_69960_5443" style="mask-type:alpha" maskUnits="userSpaceOnUse" x="0" y="0" width="25" height="25">
<rect x="0.144531" y="0.80835" width="24" height="24" fill="#D9D9D9"/>
</mask>
<g mask="url(#mask0_69960_5443)">
<path d="M12.1443 16.8083C13.3943 16.8083 14.4568 16.3708 15.3318 15.4958C16.2068 14.6208 16.6443 13.5583 16.6443 12.3083C16.6443 11.0583 16.2068 9.99585 15.3318 9.12085C14.4568 8.24585 13.3943 7.80835 12.1443 7.80835C10.8943 7.80835 9.83184 8.24585 8.95684 9.12085C8.08184 9.99585 7.64434 11.0583 7.64434 12.3083C7.64434 13.5583 8.08184 14.6208 8.95684 15.4958C9.83184 16.3708 10.8943 16.8083 12.1443 16.8083ZM12.1443 15.0083C11.3943 15.0083 10.7568 14.7458 10.2318 14.2208C9.70684 13.6959 9.44434 13.0583 9.44434 12.3083C9.44434 11.5583 9.70684 10.9208 10.2318 10.3958C10.7568 9.87085 11.3943 9.60835 12.1443 9.60835C12.8943 9.60835 13.5318 9.87085 14.0568 10.3958C14.5818 10.9208 14.8443 11.5583 14.8443 12.3083C14.8443 13.0583 14.5818 13.6959 14.0568 14.2208C13.5318 14.7458 12.8943 15.0083 12.1443 15.0083ZM12.1443 19.8083C9.82767 19.8083 7.711 19.1959 5.79434 17.9708C3.87767 16.7458 2.42767 15.0917 1.44434 13.0083C1.39434 12.925 1.361 12.8209 1.34434 12.6958C1.32767 12.5708 1.31934 12.4417 1.31934 12.3083C1.31934 12.175 1.32767 12.0458 1.34434 11.9208C1.361 11.7958 1.39434 11.6917 1.44434 11.6083C2.42767 9.52502 3.87767 7.87085 5.79434 6.64585C7.711 5.42085 9.82767 4.80835 12.1443 4.80835C14.461 4.80835 16.5777 5.42085 18.4943 6.64585C20.411 7.87085 21.861 9.52502 22.8443 11.6083C22.8943 11.6917 22.9277 11.7958 22.9443 11.9208C22.961 12.0458 22.9693 12.175 22.9693 12.3083C22.9693 12.4417 22.961 12.5708 22.9443 12.6958C22.9277 12.8209 22.8943 12.925 22.8443 13.0083C21.861 15.0917 20.411 16.7458 18.4943 17.9708C16.5777 19.1959 14.461 19.8083 12.1443 19.8083ZM12.1443 17.8083C14.0277 17.8083 15.7568 17.3125 17.3318 16.3208C18.9068 15.3292 20.111 13.9917 20.9443 12.3083C20.111 10.625 18.9068 9.28752 17.3318 8.29585C15.7568 7.30418 14.0277 6.80835 12.1443 6.80835C10.261 6.80835 8.53184 7.30418 6.95684 8.29585C5.38184 9.28752 4.17767 10.625 3.34434 12.3083C4.17767 13.9917 5.38184 15.3292 6.95684 16.3208C8.53184 17.3125 10.261 17.8083 12.1443 17.8083Z" fill="#A8A8A8"/>
</g>
</svg>
