<svg width="25" height="25" viewBox="0 0 25 25" fill="none" xmlns="http://www.w3.org/2000/svg">
<mask id="mask0_69960_5428" style="mask-type:alpha" maskUnits="userSpaceOnUse" x="0" y="0" width="25" height="25">
<rect x="0.144531" y="0.80835" width="24" height="24" fill="#D9D9D9"/>
</mask>
<g mask="url(#mask0_69960_5428)">
<path d="M16.2443 14.1084L14.7943 12.6584C14.9443 11.8751 14.7193 11.1418 14.1193 10.4584C13.5193 9.77511 12.7443 9.50845 11.7943 9.65845L10.3443 8.20845C10.6277 8.07511 10.9152 7.97511 11.2068 7.90845C11.4985 7.84178 11.811 7.80845 12.1443 7.80845C13.3943 7.80845 14.4568 8.24595 15.3318 9.12095C16.2068 9.99595 16.6443 11.0584 16.6443 12.3084C16.6443 12.6418 16.611 12.9543 16.5443 13.2459C16.4777 13.5376 16.3777 13.8251 16.2443 14.1084ZM19.4443 17.2584L17.9943 15.8584C18.6277 15.3751 19.1902 14.8459 19.6818 14.2709C20.1735 13.6959 20.5943 13.0418 20.9443 12.3084C20.111 10.6251 18.9152 9.28761 17.3568 8.29595C15.7985 7.30428 14.061 6.80845 12.1443 6.80845C11.661 6.80845 11.186 6.84178 10.7193 6.90845C10.2527 6.97511 9.79434 7.07511 9.34434 7.20845L7.79434 5.65845C8.47767 5.37511 9.17767 5.16261 9.89434 5.02095C10.611 4.87928 11.361 4.80845 12.1443 4.80845C14.5277 4.80845 16.6693 5.43761 18.5693 6.69595C20.4693 7.95428 21.8943 9.59178 22.8443 11.6084C22.8943 11.6918 22.9277 11.7959 22.9443 11.9209C22.961 12.0459 22.9693 12.1751 22.9693 12.3084C22.9693 12.4418 22.9568 12.5709 22.9318 12.6959C22.9068 12.8209 22.8777 12.9251 22.8443 13.0084C22.461 13.8584 21.9818 14.6418 21.4068 15.3584C20.8318 16.0751 20.1777 16.7084 19.4443 17.2584ZM19.2443 22.7084L15.7443 19.2584C15.161 19.4418 14.5735 19.5793 13.9818 19.6709C13.3902 19.7626 12.7777 19.8084 12.1443 19.8084C9.761 19.8084 7.61934 19.1793 5.71934 17.9209C3.81934 16.6626 2.39434 15.0251 1.44434 13.0084C1.39434 12.9251 1.361 12.8209 1.34434 12.6959C1.32767 12.5709 1.31934 12.4418 1.31934 12.3084C1.31934 12.1751 1.32767 12.0501 1.34434 11.9334C1.361 11.8168 1.39434 11.7168 1.44434 11.6334C1.79434 10.8834 2.211 10.1918 2.69434 9.55845C3.17767 8.92511 3.711 8.34178 4.29434 7.80845L2.21934 5.70845C2.036 5.52511 1.94434 5.29595 1.94434 5.02095C1.94434 4.74595 2.04434 4.50845 2.24434 4.30845C2.42767 4.12511 2.661 4.03345 2.94434 4.03345C3.22767 4.03345 3.461 4.12511 3.64434 4.30845L20.6443 21.3084C20.8277 21.4918 20.9235 21.7209 20.9318 21.9959C20.9402 22.2709 20.8443 22.5084 20.6443 22.7084C20.461 22.8918 20.2277 22.9834 19.9443 22.9834C19.661 22.9834 19.4277 22.8918 19.2443 22.7084ZM5.69434 9.20845C5.211 9.64178 4.76934 10.1168 4.36934 10.6334C3.96934 11.1501 3.62767 11.7084 3.34434 12.3084C4.17767 13.9918 5.3735 15.3293 6.93184 16.3209C8.49017 17.3126 10.2277 17.8084 12.1443 17.8084C12.4777 17.8084 12.8027 17.7876 13.1193 17.7459C13.436 17.7043 13.761 17.6584 14.0943 17.6084L13.1943 16.6584C13.011 16.7084 12.836 16.7459 12.6693 16.7709C12.5027 16.7959 12.3277 16.8084 12.1443 16.8084C10.8943 16.8084 9.83184 16.3709 8.95684 15.4959C8.08184 14.6209 7.64434 13.5584 7.64434 12.3084C7.64434 12.1251 7.65684 11.9501 7.68184 11.7834C7.70684 11.6168 7.74434 11.4418 7.79434 11.2584L5.69434 9.20845Z" fill="#A8A8A8"/>
</g>
</svg>
