<svg width="42" height="43" viewBox="0 0 42 43" fill="none" xmlns="http://www.w3.org/2000/svg">
<rect y="0.931763" width="42" height="42" rx="21" fill="white"/>
<circle cx="21" cy="21.9318" r="20" fill="#9327FF" stroke="white" stroke-width="2"/>
<path d="M14.5339 25.9318H13.426L16.6305 17.2045H17.7214L20.926 25.9318H19.818L17.21 18.5852H17.1419L14.5339 25.9318ZM14.943 22.5227H19.4089V23.4602H14.943V22.5227ZM27.0581 19.3863C27.0069 18.9545 26.7995 18.6193 26.4359 18.3806C26.0723 18.142 25.6262 18.0227 25.0978 18.0227C24.7115 18.0227 24.3734 18.0852 24.0836 18.2102C23.7967 18.3352 23.5723 18.507 23.4103 18.7258C23.2512 18.9445 23.1717 19.1931 23.1717 19.4715C23.1717 19.7045 23.2271 19.9048 23.3379 20.0724C23.4515 20.2372 23.5964 20.3749 23.7725 20.4857C23.9487 20.5937 24.1333 20.6832 24.3265 20.7542C24.5197 20.8224 24.6973 20.8778 24.8592 20.9204L25.7456 21.159C25.9728 21.2187 26.2257 21.3011 26.5041 21.4062C26.7853 21.5113 27.0538 21.6548 27.3095 21.8366C27.568 22.0156 27.7811 22.2457 27.9487 22.5269C28.1163 22.8082 28.2001 23.1534 28.2001 23.5624C28.2001 24.034 28.0765 24.4602 27.8294 24.8409C27.585 25.2215 27.2271 25.5241 26.7555 25.7485C26.2868 25.973 25.7172 26.0852 25.0467 26.0852C24.4217 26.0852 23.8805 25.9843 23.4231 25.7826C22.9686 25.5809 22.6106 25.2997 22.3493 24.9389C22.0907 24.5781 21.9444 24.159 21.9103 23.6818H23.0012C23.0297 24.0113 23.1404 24.284 23.3336 24.4999C23.5297 24.713 23.7768 24.8721 24.0751 24.9772C24.3762 25.0795 24.7001 25.1306 25.0467 25.1306C25.4501 25.1306 25.8123 25.0653 26.1333 24.9346C26.4544 24.8011 26.7086 24.6164 26.8961 24.3806C27.0836 24.142 27.1774 23.8636 27.1774 23.5454C27.1774 23.2556 27.0964 23.0198 26.9345 22.838C26.7725 22.6562 26.5595 22.5085 26.2953 22.3948C26.0311 22.2812 25.7456 22.1818 25.4387 22.0965L24.3649 21.7897C23.6831 21.5937 23.1433 21.3139 22.7456 20.9502C22.3478 20.5866 22.149 20.1107 22.149 19.5227C22.149 19.034 22.2811 18.6079 22.5453 18.2443C22.8123 17.8778 23.1703 17.5937 23.6191 17.392C24.0708 17.1874 24.5751 17.0852 25.1319 17.0852C25.6944 17.0852 26.1944 17.186 26.6319 17.3877C27.0694 17.5866 27.416 17.8593 27.6717 18.2059C27.9302 18.5525 28.0666 18.946 28.0808 19.3863H27.0581Z" fill="white"/>
</svg>
