<svg width="42" height="43" viewBox="0 0 42 43" fill="none" xmlns="http://www.w3.org/2000/svg">
<rect y="0.931763" width="42" height="42" rx="21" fill="white"/>
<circle cx="21" cy="21.9318" r="20" fill="#6E52FF" stroke="white" stroke-width="2"/>
<path d="M14.4045 25.9318V17.2045H17.4556C18.0636 17.2045 18.565 17.3096 18.9599 17.5198C19.3548 17.7272 19.6488 18.007 19.842 18.3593C20.0352 18.7088 20.1317 19.0965 20.1317 19.5227C20.1317 19.8977 20.065 20.2073 19.9315 20.4516C19.8008 20.696 19.6275 20.8891 19.4116 21.0312C19.1985 21.1732 18.967 21.2784 18.717 21.3465V21.4318C18.984 21.4488 19.2525 21.5426 19.5224 21.713C19.7923 21.8835 20.0181 22.1278 20.1999 22.446C20.3817 22.7641 20.4727 23.1534 20.4727 23.6136C20.4727 24.0511 20.3732 24.4445 20.1744 24.794C19.9755 25.1434 19.6616 25.4204 19.2326 25.6249C18.8036 25.8295 18.2454 25.9318 17.5579 25.9318H14.4045ZM15.4613 24.9943H17.5579C18.2482 24.9943 18.7383 24.8607 19.0281 24.5937C19.3207 24.3238 19.467 23.9971 19.467 23.6136C19.467 23.3181 19.3917 23.0454 19.2411 22.7954C19.0906 22.5426 18.8761 22.3409 18.5977 22.1903C18.3192 22.0369 17.9897 21.9602 17.609 21.9602H15.4613V24.9943ZM15.4613 21.0397H17.4215C17.7397 21.0397 18.0266 20.9772 18.2823 20.8522C18.5408 20.7272 18.7454 20.5511 18.896 20.3238C19.0494 20.0965 19.1261 19.8295 19.1261 19.5227C19.1261 19.1391 18.9925 18.8139 18.7255 18.5468C18.4585 18.2769 18.0352 18.142 17.4556 18.142H15.4613V21.0397ZM21.9194 25.9318V25.1647L26.6239 18.142H21.8683V17.2045H27.8853V17.9715L23.1808 24.9943H27.9364V25.9318H21.9194Z" fill="white"/>
</svg>
