<svg width="42" height="43" viewBox="0 0 42 43" fill="none" xmlns="http://www.w3.org/2000/svg">
<rect y="0.931763" width="42" height="42" rx="21" fill="white"/>
<circle cx="21" cy="21.9318" r="20" fill="#FC71FF" stroke="white" stroke-width="2"/>
<path d="M16.8516 25.9318H14.1584V17.2045H16.9709C17.8175 17.2045 18.5419 17.3792 19.1442 17.7286C19.7464 18.0752 20.2081 18.5738 20.5291 19.2244C20.8501 19.8721 21.0107 20.6477 21.0107 21.5511C21.0107 22.4602 20.8487 23.2428 20.5249 23.8991C20.201 24.5525 19.7294 25.0553 19.1101 25.4076C18.4908 25.757 17.7379 25.9318 16.8516 25.9318ZM15.2152 24.9943H16.7834C17.505 24.9943 18.103 24.8551 18.5774 24.5766C19.0518 24.2982 19.4055 23.9019 19.6385 23.3877C19.8714 22.8735 19.9879 22.2613 19.9879 21.5511C19.9879 20.8465 19.8729 20.24 19.6428 19.7315C19.4126 19.2201 19.0689 18.8281 18.6115 18.5553C18.1541 18.2798 17.5845 18.142 16.9027 18.142H15.2152V24.9943ZM22.7834 25.9318V17.2045H28.0504V18.142H23.8402V21.0909H27.7777V22.0284H23.8402V24.9943H28.1186V25.9318H22.7834Z" fill="white"/>
</svg>
