<svg width="42" height="43" viewBox="0 0 42 43" fill="none" xmlns="http://www.w3.org/2000/svg">
<rect y="0.931763" width="42" height="42" rx="21" fill="white"/>
<circle cx="21" cy="21.9318" r="20" fill="#462F8A" stroke="white" stroke-width="2"/>
<path d="M12.8166 17.2045H14.0779L17.0439 24.4488H17.1461L20.112 17.2045H21.3734V25.9318H20.3848V19.3011H20.2995L17.5723 25.9318H16.6177L13.8904 19.3011H13.8052V25.9318H12.8166V17.2045ZM23.4924 25.9318V17.2045H26.5435C27.1515 17.2045 27.6529 17.3096 28.0478 17.5198C28.4426 17.7272 28.7367 18.007 28.9299 18.3593C29.123 18.7088 29.2196 19.0965 29.2196 19.5227C29.2196 19.8977 29.1529 20.2073 29.0194 20.4516C28.8887 20.696 28.7154 20.8891 28.4995 21.0312C28.2864 21.1732 28.0549 21.2784 27.8049 21.3465V21.4318C28.0719 21.4488 28.3404 21.5426 28.6103 21.713C28.8801 21.8835 29.106 22.1278 29.2878 22.446C29.4696 22.7641 29.5605 23.1534 29.5605 23.6136C29.5605 24.0511 29.4611 24.4445 29.2623 24.794C29.0634 25.1434 28.7495 25.4204 28.3205 25.6249C27.8915 25.8295 27.3333 25.9318 26.6458 25.9318H23.4924ZM24.5492 24.9943H26.6458C27.3361 24.9943 27.8262 24.8607 28.1159 24.5937C28.4086 24.3238 28.5549 23.9971 28.5549 23.6136C28.5549 23.3181 28.4796 23.0454 28.329 22.7954C28.1784 22.5426 27.964 22.3409 27.6855 22.1903C27.4071 22.0369 27.0776 21.9602 26.6969 21.9602H24.5492V24.9943ZM24.5492 21.0397H26.5094C26.8276 21.0397 27.1145 20.9772 27.3702 20.8522C27.6287 20.7272 27.8333 20.5511 27.9838 20.3238C28.1373 20.0965 28.214 19.8295 28.214 19.5227C28.214 19.1391 28.0804 18.8139 27.8134 18.5468C27.5463 18.2769 27.123 18.142 26.5435 18.142H24.5492V21.0397Z" fill="white"/>
</svg>
