<svg width="42" height="43" viewBox="0 0 42 43" fill="none" xmlns="http://www.w3.org/2000/svg">
<rect y="0.931763" width="42" height="42" rx="21" fill="white"/>
<circle cx="21" cy="21.9318" r="20" fill="#00BEE8" stroke="white" stroke-width="2"/>
<path d="M17.6655 19.3863C17.6143 18.9545 17.407 18.6193 17.0433 18.3806C16.6797 18.142 16.2337 18.0227 15.7053 18.0227C15.3189 18.0227 14.9808 18.0852 14.6911 18.2102C14.4041 18.3352 14.1797 18.507 14.0178 18.7258C13.8587 18.9445 13.7791 19.1931 13.7791 19.4715C13.7791 19.7045 13.8345 19.9048 13.9453 20.0724C14.0589 20.2372 14.2038 20.3749 14.38 20.4857C14.5561 20.5937 14.7408 20.6832 14.9339 20.7542C15.1271 20.8224 15.3047 20.8778 15.4666 20.9204L16.353 21.159C16.5803 21.2187 16.8331 21.3011 17.1115 21.4062C17.3928 21.5113 17.6612 21.6548 17.9169 21.8366C18.1754 22.0156 18.3885 22.2457 18.5561 22.5269C18.7237 22.8082 18.8075 23.1534 18.8075 23.5624C18.8075 24.034 18.6839 24.4602 18.4368 24.8409C18.1925 25.2215 17.8345 25.5241 17.3629 25.7485C16.8942 25.973 16.3246 26.0852 15.6541 26.0852C15.0291 26.0852 14.4879 25.9843 14.0305 25.7826C13.576 25.5809 13.218 25.2997 12.9567 24.9389C12.6982 24.5781 12.5518 24.159 12.5178 23.6818H13.6087C13.6371 24.0113 13.7479 24.284 13.9411 24.4999C14.1371 24.713 14.3842 24.8721 14.6825 24.9772C14.9837 25.0795 15.3075 25.1306 15.6541 25.1306C16.0575 25.1306 16.4197 25.0653 16.7408 24.9346C17.0618 24.8011 17.3161 24.6164 17.5036 24.3806C17.6911 24.142 17.7848 23.8636 17.7848 23.5454C17.7848 23.2556 17.7038 23.0198 17.5419 22.838C17.38 22.6562 17.1669 22.5085 16.9027 22.3948C16.6385 22.2812 16.353 22.1818 16.0462 22.0965L14.9723 21.7897C14.2905 21.5937 13.7507 21.3139 13.353 20.9502C12.9553 20.5866 12.7564 20.1107 12.7564 19.5227C12.7564 19.034 12.8885 18.6079 13.1527 18.2443C13.4197 17.8778 13.7777 17.5937 14.2266 17.392C14.6783 17.1874 15.1825 17.0852 15.7393 17.0852C16.3018 17.0852 16.8018 17.186 17.2393 17.3877C17.6768 17.5866 18.0234 17.8593 18.2791 18.2059C18.5376 18.5525 18.674 18.946 18.6882 19.3863H17.6655ZM20.5451 17.2045H21.8065L24.7724 24.4488H24.8746L27.8406 17.2045H29.1019V25.9318H28.1133V19.3011H28.0281L25.3008 25.9318H24.3462L21.619 19.3011H21.5337V25.9318H20.5451V17.2045Z" fill="white"/>
</svg>
