<svg width="26" height="26" viewBox="0 0 26 26" fill="none" xmlns="http://www.w3.org/2000/svg">
<path d="M2.62652 25.1853C1.95579 25.1853 1.38161 24.9465 0.903963 24.4688C0.426321 23.9912 0.1875 23.417 0.1875 22.7462V5.67308C0.1875 5.00235 0.426321 4.42816 0.903963 3.95052C1.38161 3.47287 1.95579 3.23405 2.62652 3.23405H13.5107L11.0716 5.67308H2.62652V22.7462H19.6997V14.2706L22.1387 11.8316V22.7462C22.1387 23.417 21.8999 23.9912 21.4223 24.4688C20.9446 24.9465 20.3704 25.1853 19.6997 25.1853H2.62652ZM16.2546 3.93527L17.9924 5.64259L9.9436 13.6914V15.4292H11.6509L19.7302 7.34991L21.468 9.05722L13.3887 17.1365C13.1651 17.3601 12.906 17.5379 12.6113 17.67C12.3166 17.8021 12.0066 17.8682 11.6814 17.8682H8.72409C8.37856 17.8682 8.08892 17.7513 7.85518 17.5176C7.62144 17.2839 7.50457 16.9942 7.50457 16.6487V13.6914C7.50457 13.3662 7.56555 13.0562 7.6875 12.7615C7.80945 12.4668 7.98222 12.2076 8.20579 11.9841L16.2546 3.93527ZM21.468 9.05722L16.2546 3.93527L19.3034 0.886492C19.7912 0.398688 20.3755 0.154785 21.0564 0.154785C21.7373 0.154785 22.3115 0.398688 22.779 0.886492L24.4863 2.6243C24.9538 3.09178 25.1875 3.66088 25.1875 4.33161C25.1875 5.00235 24.9538 5.57145 24.4863 6.03893L21.468 9.05722Z" fill="#CDCDCD"/>
</svg>
