<svg width="30" height="31" viewBox="0 0 30 31" fill="none" xmlns="http://www.w3.org/2000/svg">
<path d="M25.2273 3.48291H4.77273H4.5C3.39543 3.48291 2.5 4.37864 2.5 5.48321C2.5 5.663 2.5 5.79037 2.5 5.82288V26.2774V26.4829C2.5 27.5875 3.39572 28.4829 4.50029 28.4829C4.64377 28.4829 4.74401 28.4829 4.77272 28.4829H25.2273C25.256 28.4829 25.3562 28.4829 25.4997 28.4829C26.6043 28.4829 27.5 27.587 27.5 26.4824C27.5 26.3756 27.5 26.3017 27.5 26.2774V5.82285C27.5 5.79035 27.5 5.66299 27.5 5.48321C27.5 4.37864 26.6043 3.48291 25.4997 3.48291C25.3562 3.48291 25.256 3.48291 25.2273 3.48291ZM17.2727 26.2774H4.77273V17.1865H17.2727V26.2774ZM17.2727 14.9138H4.77273V5.82288L17.2727 5.82285V14.9138ZM25.2273 26.2774H19.5455V5.82288H25.2273V26.2774Z" fill="white"/>
</svg>
