<svg width="33" height="33" viewBox="0 0 33 33" fill="none" xmlns="http://www.w3.org/2000/svg">
<mask id="mask0_75592_8419" style="mask-type:alpha" maskUnits="userSpaceOnUse" x="0" y="0" width="33" height="33">
<rect x="0.394531" y="0.80835" width="32" height="32" fill="#D9D9D9"/>
</mask>
<g mask="url(#mask0_75592_8419)">
<path d="M7.0612 26.1418H8.92787L20.4279 14.6418L18.5612 12.7751L7.0612 24.2751V26.1418ZM26.1279 12.7084L20.4612 7.10843L22.3279 5.24176C22.839 4.73065 23.4668 4.4751 24.2112 4.4751C24.9556 4.4751 25.5834 4.73065 26.0945 5.24176L27.9612 7.10843C28.4723 7.61954 28.739 8.23621 28.7612 8.95843C28.7834 9.68065 28.539 10.2973 28.0279 10.8084L26.1279 12.7084ZM24.1945 14.6751L10.0612 28.8084H4.39453V23.1418L18.5279 9.00843L24.1945 14.6751Z" fill="white"/>
</g>
</svg>
